<mxfile host="65bd71144e" modified="2021-01-06T03:14:30.492Z" agent="5.0 (Windows NT 10.0; Win64; x64) AppleWebKit/537.36 (KHTML, like Gecko) Code/1.52.1 Chrome/83.0.4103.122 Electron/9.3.5 Safari/537.36" etag="anZGUBhgtKkA2tEQH0Rg" version="13.10.0" type="embed">
    <diagram id="6v7BmJj_ceSCi95pIZ7p" name="Page-1">
        <mxGraphModel dx="2038" dy="439" grid="1" gridSize="10" guides="1" tooltips="1" connect="1" arrows="1" fold="1" page="1" pageScale="1" pageWidth="827" pageHeight="1169" math="0" shadow="0">
            <root>
                <mxCell id="0"/>
                <mxCell id="1" parent="0"/>
                <mxCell id="2" value="" style="rounded=0;whiteSpace=wrap;html=1;fillColor=#f5f5f5;strokeColor=#666666;fontColor=#333333;" parent="1" vertex="1">
                    <mxGeometry x="1" y="640" width="839" height="520" as="geometry"/>
                </mxCell>
                <mxCell id="4hbtPa9VFHNtGfl8PcOY-229" value="" style="shape=image;verticalLabelPosition=bottom;labelBackgroundColor=#ffffff;verticalAlign=top;aspect=fixed;imageAspect=0;image=data:image/png,iVBORw0KGgoAAAANSUhEUgAABwgAAAJYCAYAAAB2JbLWAAAAAXNSR0IArs4c6QAAQABJREFUeAHs3Qm8JFdZKPCZyZ3sybDDg5ANiewIwyI7KiAPRETxBdnCJoggEHwioMj20LAIKCooEAgCIsoushPCJiA37PsiCQhhCckkgZDMnfF9J3MrqVtddW/37aruqtP/+v0+u+pU1alz/t8Zfs58qe4tW2wECBAgQIAAAQIECBAgQIAAAQIECBAgQIAAAQIECBAgQIAAAQIECBAgQIAAAQIECBAgQIAAAQIECBAgQIAAAQIECBAgQIAAAQIECBAgQIAAAQIECBAgQIAAAQIECBAgQIAAAQIECBAgQIAAAQIECBAgQIAAAQIECBAgQIAAAQIECBAgQIAAAQIECBAgQIAAAQIECBAgQIAAAQIECBAgQIAAAQIECBAgQIAAAQIECBAgQIAAAQIECBAgQIAAAQIECBAgQIAAAQIECBAgQIAAAQIECBAgQIAAAQIECBAgQIAAAQIECBAgQIAAAQIECBAgQIAAAQIECBAgQIAAAQIECBAgQIAAAQIECBAgQIAAAQIECBAgQIAAAQIECBAgQIAAAQIECBAgQIAAAQIECBAgQIAAAQIECBAgQIAAAQIECBAgQIAAAQIECBAgQIAAAQIECBAgQIAAAQIECBAgQIAAAQIECBAgQIAAAQIECBAgQIAAAQIECBAgQIAAAQIECBAgQIAAAQIECBAgQIAAAQIECBAgQIAAAQIECBAgQIAAAQIECBAgQIAAAQIECBAgQIAAAQIECBAgQIAAAQIECBAgQIAAAQIECBAgQIAAAQIECBAgQIAAAQIECBAgQIAAAQIECBAgQIAAAQIECBAgQIAAAQIECBAgQIAAAQIECBAgQIAAAQIECBAgQIAAAQIECBAgQIAAAQIECBAgQIAAAQIECBAgQIAAAQIECBAgQIAAAQIECBAgQIAAAQIECBAgQIAAAQIECBAgQIAAAQIECBAgQIAAAQIECBAgQIAAAQIECBAgQIAAAQIECBAgQIAAAQIECBAgQIAAAQIECBAgQIAAAQIECBAgQIAAAQIECBAgQIAAAQIECBAgQIAAAQIECBAgQIAAAQIECBAgQIAAAQIECBAgQIAAAQIECBAgQIAAAQIECBAgQIAAAQIECBAgQIAAAQIECBAgQIAAAQIECBAgQIAAAQIECBAgQIAAAQIECBAgQIAAAQIECBAgQIAAAQIECBAgQIAAAQIECBAgQIAAAQIECBAgQIAAAQIECBAgQIAAAQIECBAgQIAAAQIECBAgQIAAAQIECBAgQIAAAQIECBAgQIAAAQIECBAgQIAAAQIECBAgQIAAAQIECBAgQIAAAQIECBAgQIAAAQIECBAgMG+BrbMewM6dO3csLS0dlZ67srJyxvLy8q5Zj2GWzzNf+Z3leuv6Wdaz9dz1Gptl/9az9TzL9db1s6xn67nrNTbL/q1n63mW663rZ1nP1nPXa2yW/VvP1vMs11vXz7Kereeu19gs+7eeredZrreun2U9z3Y9b+s6odX+V4uD26N9e1EorF6T07H55pTN0bnI76hJTi3ym1M2R+civ6MmObXIb07ZHJ2L/I6a5NQivzllc3Qu8jtqklOL/OaUzdG5yO+oSU4t8ptTNkfnIr+jJjm1yG9O2Rydi/yOmuTUMu/8zrxAmFPyzIUAAQIECBAgQIAAAQIECBAgQIAAAQIECBAgQIDA0ARmXiBMXysaSLtTrO4PzWyi8ZrvRFyDu1h+B5eyiQYsvxNxDe5i+R1cyiYasPxOxDW4i+V3cCmbaMDyOxHX4C6W38GlbKIBy+9EXIO7WH4Hl7KJBiy/E3EN7mL5HVzKJhqw/E7ENbiL5XdwKZtowIuW34lwXEyAAAECBAgQIECAAAECBAgQIECAAAECBAgQIECAAAECBAgQIECAAAECBAgQIECAAAECBAgQIECAAAECBAgQIECAAAECBAgQIECAAAECBAgQIECAAAECBAgQIECAAAECBAgQIECAAAECBAgQIECAAAECBAgQIECAAAECBAgQIECAAAECBAgQIECAAAECBAgQIECAAAECBAgQIECAAAECBAgQIECAAAECBAgQIECAAAECBAgQIECAAAECBAgQIECAAAECBAgQIECAAAECBAgQIECAAAECBAgQIECAAAECBAgQIECAAAECBAgQIECAAAECBAgQIECAAAECBAgQIECAAAECBAgQIECAAAECBAgQIECAAAECBAgQIECAAAECBAgQIECAAAECBAgQIECAAAECBAgQIECAAAECBAgQIECAAAECBAgQIECAAAECBAgQIECAAAECBAgQIECAAAECBAgQIECAAAECBAgQIECAAAECBAgQIECAAAECBAgQIECAAAECBAgQIECAAAECBAgQIECAAAECBAgQIECAAAECBAgQIECAAAECBAgQIECAAAECBAgQIECAAAECBAgQIECAAAECBAgQIECAAAECBAgQIECAAAECBAgQIECAAAECBAgQIECAAAECBAgQIECAAAECBAgQIECAAAECBAgQIECAAAECBAgQIECAAAECBAgQIECAAAECBAgQIECAAAECBAgQIECAAAECBAgQIECAAAECBAgQIECAAAECBAgQIECAAAECBAgQIECAAAECBAgQIECAAAECBAgQIECAAAECBAgQIECAAAECBAgQIECAAAECBAgQIECAAAECBAgQIECAAAECBAgQIECAAAECBAgQIECAAAECBAgQIECAAAECBAgQIECAAAECBAgQIECAAAECBAgQIECAAAECBAgQIECAAAECBAgQIECAAAECBAgQIECAAAECBAgQIECAAAECBAgQIECAAAECBAgQIECAAAECBAgQIECAAAECBAgQIECAAAECBAgQIECAAAECBAgQIECAAAECBAgQIECAAAECBAgQIECAAAECBAgQIECAAAECBAgQIECAAAECBAgQIECAAAECBAgQIECAAAECBAgQIECAAAECBAgQIECAAAECBAgQIECAAAECBAgQIECAAAECBAgQIECAAAECBAgQIECAAAECBAgQIECAAAECBAgQIECAAAECBAgQIECAAAECBAgQIECAAAECBAgQIECAAAECBAgQIECAAAECBAgQIECAAAECBAgQIECAAAECBAgQIECAAAECBAgQIECAAAECBAgQIECAAAECBAgQIECAAAECBAgQIECAAAECBAgQIECAAAECBAgQIECAAAECBAgQIECAAAECBAgQIECAAAECBAgQIECAAAECBAgQIECAAAECBAgQIECAAAECBAgQIECAAAECBAgQIECAAAECBAgQIECAAAECBAgQIECAAAECBAgQIECAAAECBAgQIECAAAECBAgQIECAAAECBAgQIECAAAECBAgQIECAAAECBAgQIECAAAECBAgQIECAAAECBAgQIECAAAECBAgQIECAAAECBAgQIECAAAECBAgQIECAAAECBAgQIECAAAECBAgQIECAAAECBAgQIECAAAECBAgQIECAAAECBAgQIECAAAECBAgQIECAAAECBAgQIECAAAECBAgQIECAAAECBAgQIECAAAECBAgQIECAAAECBAgQIECAAAECBAgQIECAAAECBAgQIECAAAECBAgQIECAAAECBAgQIECAAAECBAgQIECAAAECBAgQIECAAAECBAgQIECAAAECBAgQIECAAAECBAgQIECAAAECBAgQIECAAAECBAgQIECAAAECBAgQIECAAAECBAgQIECAAAECBAgQIECAAAECBAgQIECAAAECBAgQIECAAAECBAgQIECAAAECBAgQIECAAAECBAgQIECAAAECBAgQIECAAAECBAgQIECAAAECBAgQIECAAAECBAgQIECAAAECBAgQIECAAAECBAgQIECAAAECBAgQIECAAAECBAgQIECAAAECBAgQIECAAAECBAgQIECAAAECBAgQIECAAAECBAgQIECAAAECBAgQIECAAAECBAgQIECAAAECBAgQIECAAAECBAgQIECAAAECBAgQIECAAAECBAgQIECAAAECBAgQIECAAAECBAgQIECAAAECBAgQIECAAAECBAgQIECAAAECBAgQIECAAAECBAgQIECAAAECBAgQIECAAAECBAgQIECAAAECBAgQIECAAAECBAgQIECAAAECBAgQIECAAAECBAgQIECAAAECBAgQIECAAAECBAgQIEBgRgJbZ/ScSx+zc+fOHUtLS0elhpWVlTOWl5d3XXoywx3zld+clrX1bD1bz8MV8OfXn9/hrt7RkVvP1vPoqhhui/VsPQ939Y6O3Hq2nkdXxXBbrGfrebird3Tk1rP1PLoqhttiPVvPw129oyOf93reNjqkbltWi4Pb4ynbi0Jht0+cb+/mO1//rp8uv10Lz7d/+Z2vf9dPl9+uhefbv/zO17/rp8tv18Lz7V9+5+vf9dPlt2vh+fYvv/P17/rp8tu18Hz7l9/5+nf9dPntWni+/cvvfP27frr8di083/7nnd+ZFwjny+3pBAgQIECAAAECBAgQIECAAAECBAgQIECAAAECBBZbYOYFwvS1okG+O8XqftYZMN+s03vJ1+Raz/nm2J/ffHObZia/8puTgPWcUzZH5yK/oyY5tchvTtkcnYv8jprk1CK/OWVzdC7yO2qSU4v85pTN0bnI76hJTi3ym1M2R+civ6MmWggQIECAAAECBAgQIECAAAECBAgQIECAAAECBAgQIECAAAECBAgQIECAAAECBAgQIECAAAECBAgQIECAAAECBAgQIECAAAECBAgQIECAAAECBAgQIECAAAECBAgQIECAAAECBAgQIECAAAECBAgQIECAAAECBAgQIECAAAECBAgQIECAAAECBAgQIECAAAECBAgQIECAAAECBAgQIECAAAECBAgQIECAAAECBAgQIECAAAECBAgQIECAAAECBAgQIECAAAECBAgQIECAAAECBAgQIECAAAECBAgQIECAAAECBAgQIECAAAECBAgQIECAAAECBAgQIECAAAECBAgQIECAAAECBAgQIECAAAECBAgQIECAAAECBAgQIECAAAECBAgQIECAAAECBAgQIECAAAECBAgQIECAAAECBAgQIECAAAECBAgQIECAAAECBAgQIECAAAECBAgQIECAAAECBAgQIECAAAECBAgQIECAAAECBAgQIECAAAECBAgQIECAAAECBAgQIECAAAECBAgQIECAAAECBAgQIECAAAECBAgQIECAAAECBAgQIECAAAECBAgQIECAAAECBAgQIECAAAECBAgQIECAAAECBAgQIECAAAECBAgQIECAAAECBAgQIECAAAECBAgQIECAAAECBAgQIECAAAECBAgQIECAAAECBAgQIECAAAECBAgQIECAAAECBAgQIECAAAECBAgQIECAAAECBAgQIECAAAECBAgQIECAAAECBAgQIECAAAECBAgQIECAAAECBAgQIECAAAECBAgQIECAAAECBAgQIECAAAECBAgQIECAAAECBAgQIECAAAECBAgQIECAAAECBAgQIECAAAECBAgQIECAAAECBAgQIECAAAECBAgQIECAAAECBAgQIECAAAECBAgQIECAAAECBAgQIECAAAECBAgQIECAAAECBAgQIECAAAECBAgQIECAAAECBAgQIECAAAECBAgQIECAAAECBAgQIECAAAECBAgQIECAAAECBAgQIECAAAECBAgQIECAAAECBAgQIECAAAECBAgQIECAAAECBAgQIECAAAECBAgQIECAAAECBAgQIECAAAECBAgQIECAAAECBAgQIECAAAECBAgQIECAAAECBAgQIECAAAECBAgQIECAAAECBAgQIECAAAECBAgQIECAAAECBAgQIECAAAECBAgQIECAAAECBAgQIECAAAECBAgQIECAAAECBAgQIECAAAECBAgQIECAAAECBAgQIECAAAECBAgQIECAAAECBAgQIECAAAECBAgQIECAAAECBAgQIECAAAECBAgQIECAAAECBAgQIECAAAECBAgQIECAAAECBAgQIECAAAECBAgQIECAAAECBAgQIECAAAECBAgQIECAAAECBAgQIECAAAECBAgQIECAAAECBAgQIECAAAECBAgQIECAAAECBAgQIECAAAECBAgQIECAAAECBAgQIECAAAECBAgQIECAAAECBAgQIECAAAECBAgQIECAAAECBAgQIECAAAECBAgQIECAAAECBAgQIECAAAECBAgQIECAAAECBAgQIECAAAECBAgQIECAAAECBAgQIECAAAECBAgQIECAAAECBAgQIECAAAECBAgQIECAAAECBAgQIECAAAECBAgQIECAAAECBAgQIECAAAECBAgQIECAAAECBAgQIECAAAECBAgQIECAAAECBAgQIECAAAECBAgQIECAAAECBAgQIECAAAECBAgQIECAAAECBAgQIECAAAECBAgQIECAAAECBAgQIECAAAECBAgQIECAAAECBAgQIECAAAECBAgQIECAAAECBAgQIECAAAECBAgQIECAAAECBAgQIECAAAECBAgQIECAAAECBAgQIECAAAECBAgQIECAAAECBAgQIECAAAECBAgQIECAAAECBAgQIECAAAECBAgQIECAAAECBAgQIECAAAECBAgQIECAAAECBAgQIECAAAECBAgQIECAAAECBAgQIECAAAECBAgQIECAAAECBAgQIECAAAECBAgQIECAAAECBAgQIECAAAECBAgQIECAAAECBAgQIECAAAECBAgQIECAAAECBAgQIECAAAECBAgQIECAAAECBAgQIECAAAECBAgQIECAAAECBAgQIECAAAECBAgQIECAAAECBAgQIECAAAECBAgQIECAAAECBAgQIECAAAECBAgQIECAAAECBAgQIECAAAECBAgQIECAAAECBAgQIECAAAECBAgQIECAAAECBAgQIECAAAECBAgQIECAAAECBAgQIECAAAECBAgQIECAAAECBAgQIECAAAECBAgQIECAAAECBAgQ6FZga7fdj/a+c+fOHUtLS0elMysrK2csLy/vGr0qnxbzld98VvOWLdaz9Ww9D1fAn19/foe7ekdHbj1bz6OrYrgt1rP1PNzVOzpy69l6Hl0Vw22xnq3n4a7e0ZFbz9bz6KoYbov1bD0Pd/WOjnze63nb6JC6bVktDm6Pp2wvCoXdPnG+vZvvfP27frr8di083/7ld77+XT9dfrsWnm//8jtf/66fLr9dC8+3f/mdr3/XT5ffroXn27/8zte/66fLb9fC8+1ffufr3/XT5bdr4fn2L7/z9e/66fLbtfB8+593fmdeIJwvt6cTIECAAAECBAgQIECAAAECBAgQIECAAAECBAgQWGyBmRcI09eKBvnuFKv7WWfAfLNO7yVfk2s955tjf37zzW2amfzKb04C1nNO2Rydi/yOmuTUIr85ZXN0LvI7apJTi/zmlM3RucjvqElOLfKbUzZH5yK/oyY5tchvTtkcnYv8jppoIUCAAAECBAgQIECAAAECBAgQIECAAAECBAgQIECAAAECBAgQIECAAAECBAgQIECAAAECBAgQIECAAAECBAgQIECAAAECBAgQIECAAAECBAgQIECAAAECBAgQIECAAAECBAgQIECAAAECBAgQIECAAAECBAgQIECAAAECBAgQIECAAAECBAgQIECAAAECBAgQIECAAAECBAgQIECAAAECBAgQIECAAAECBAgQIECAAAECBAgQIECAAAECBAgQIECAAAECBAgQIECAAAECBAgQIECAAAECBAgQIECAAAECBAgQIECAAAECBAgQIECAAAECBAgQIECAAAECBAgQIECAAAECBAgQIECAAAECBAgQIECAAAECBAgQIECAAAECBAgQIECAAAECBAgQIECAAAECBAgQIECAAAECBAgQIECAAAECBAgQIECAAAECBAgQIECAAAECBAgQIECAAAECBAgQIECAAAECBAgQIECAAAECBAgQIECAAAECBAgQIECAAAECBAgQIECAAAECBAgQIECAAAECBAgQIECAAAECBAgQIECAAAECBAgQIECAAAECBAgQIECAAAECBAgQIECAAAECBAgQIECAAAECBAgQIECAAAECBAgQIECAAAECBAgQIECAAAECBAgQIECAAAECBAgQIECAAAECBAgQIECAAAECBAgQIECAAAECBAgQIECAAAECBAgQIECAAAECBAgQIECAAAECBAgQIECAAAECBAgQIECAAAECBAgQIECAAAECBAgQIECAAAECBAgQIECAAAECBAgQIECAAAECBAgQIECAAAECBAgQIECAAAECBAgQIECAAAECBAgQIECAAAECBAgQIECAAAECBAgQIECAAAECBAgQIECAAAECBAgQIECAAAECBAgQIECAAAECBAgQIECAAAECBAgQIECAAAECBAgQIECAAAECBAgQIECAAAECBAgQIECAAAECBAgQIECAAAECBAgQIECAAAECBAgQIECAAAECBAgQIECAAAECBAgQIECAAAECBAgQIECAAAECBAgQIECAAAECBAgQIECAAAECBAgQIECAAAECBAgQIECAAAECBAgQIECAAAECBAgQIECAAAECBAgQIECAAAECBAgQIECAAAECBAgQIECAAAECBAgQIECAAAECBAgQIECAAAECBAgQIECAAAECBAgQIECAAAECBAgQIECAAAECBAgQIECAAAECBAgQIECAAAECBAgQIECAAAECBAgQIECAAAECBAgQIECAAAECBAgQIECAAAECBAgQIECAAAECBAgQIECAAAECBAgQIECAAAECBAgQIECAAAECBAgQIECAAAECBAgQIECAAAECBAgQIECAAAECBAgQIECAAAECBAgQIECAAAECBAgQIECAAAECBAgQIECAAAECBAgQIECAAAECBAgQIECAAAECBAgQIECAAAECBAgQIECAAAECBAgQIECAAAECBAgQIECAAAECBAgQIECAAAECBAgQIECAAAECBAgQIECAAAECBAgQIECAAAECBAgQIECAAAECBAgQIECAAAECBAgQIECAAAECBAgQIECAAAECBAgQIECAAAECBAgQIECAAAECBAgQIECAAAECBAgQIECAAAECBAgQIECAAAECBAgQIECAAAECBAgQIECAAAECBAgQIECAAAECBAgQIECAAAECBAgQIECAwDQCW6e52b0ECBAgQIAAAQIECBCYRmDbNDe7lwABAgQIECBAgAABAgQIEJhYIP1d/HIT3+UGAgQIECBAgAABAgQIECBAgAABAgQIECBAgAABAgQGKXCTQY7aoAkQIECAAAECBAgQIECAAAECBAgQIECAAAECBAgQmFjgFnHH5Se+yw0ECBAgQIAAAQIECBBoUcBXjLaIqSsCBAgQIECAAAECBAgQILCOwLXj3FLEOetc4xQBAgQIECBAgAABAgQIECBAgAABAgQIECBAgAABAhkIHBpzeGQG8zAFAgQIECBAgAABAgQIECBAgAABAgQIECBAgAABAgTGEHhWXHPIGNe5hAABAgQIECBAgAABAgQIECBAgAABAgQIECBAgACBgQs8Psb/iwOfg+ETIECAAAECBAgQIJCRgN8gzCiZpkKAAAECBAgQIECAAAECvRP45RhRenPwY70bmQERIECAAAECBAgQIECAAAECBAgQIECAAAECBAgQINCqwDWjt3dGbG+1V50RIECAAAECBAgQIECAAAECBAgQIECAAAECBAgQINA7gQNiRKdFXK93IzMgAgQIECBAgAABAgQIECBAgAABAgQIECBAgAABAgRaF3hp9PgHrfeqQwIECBAgQIAAAQIECBAgQIAAAQIECBAgQIAAAQIEeifw8BjR+yK29m5kBkSAAAECBAgQIECAAAECBAgQIECAAAECBAgQIECAQKsCN4/evh+Rfn/QRoAAAQIECBAgQIAAAQIECBAgQIAAAQIECBAgQIBAxgJXjrmdGXHfjOdoagQIECBAgAABAgQIECBAgAABAgQIECBAgAABAgQIhMB+Ee+P+BcaBAgQIECAAAECBAgQ6LvA0qwHuHPnzh1LS0tHpeeurKycsby8vGvWY5jl88xXfme53rp+lvVsPXe9xmbZv/VsPc9yvXX9LOvZeu56jc2yf+vZep7lemv5Wc+J/q4bcYOiX+vZei7WQg6f1rP1nMM6LuZgPVvPxVrI4dN6tp5zWMfFHKzn2a7nbQX8rD5Xi4Pb43nbi0LhrJ49j+eY7zzUZ/dM+Z2d9TyeJL/zUJ/dM+V3dtbzeJL8zkN9ds+U39lZz+NJ8jsP9dk9M+P8/nYonhjx0IizC9GM51tMcc2n+a7hyO5AfrNL6ZoJye8ajuwO5De7lK6ZkPyu4cjuQH6zS+maCc07vzMvEK6ZvQMCBAgQIECAAAECBAgQIDBsgevH8E+OeHHEvw97KkZPgAABAgQIECBAgMCiCMy8QJi+VjRwd6dY3c/a2nyzTu8lX5NrPeebY39+881tmpn8ym9OAtZzTtkcnYv8jprk1CK/g8/m4TGDN0acFfGE6mzktyqS17H85pXP6mzktyqS17H85pXP6mzktyqS17H85pXP6mzktyrimAABAgQIECBAgAABAgQIEOibwNYY0JsjViJu1bfBGQ8BAgQIECBAgAABAgQIECBAgAABAgQIECBAgAABAu0KPCW6+5+IZ7Tbrd4IECBAgAABAgQIECBAgAABAgQIECBAgAABAgQIEOibwF1jQHsiTo/Y3rfBGQ8BAgQIECBAgAABAgQIECBAgAABAgQIECBAgAABAu0JHBNdnR1xYcT12utWTwQIECBAgAABAgQIECBAgAABAgQIECBAgAABAgQI9E3goBjQpyLSV4s+tm+DMx4CBAgQIECAAAECBAgQIECAAAECBAgQIECAAAECBNoVeFV0l4qD74/Y2m7XeiNAgAABAgQIECBAgAABAgQIECBAgAABAgQIECBAoE8CfxCDScXBcyOO7NPAjIUAAQIECBAgQIAAAQIECBAgQIAAAQIECBAgQIAAgXYFbhPdXRyRCoT3a7drvREgQIAAAQIECBAgQIAAAQIECBAgQIAAAQIECBAg0CeBq8VgvhuRioP/2qeBGQsBAgQIECBAgAABAgQIECBAgAABAgQIECBAgAABAu0KbI/uPhSRioPfi7hShI0AAQIECBAgQIAAAQIECBAgQIAAAQIECBAgQIAAgUwFXhTzSsXBFHfPdI6mRYAAAQIECBAgQIAAAQIECBAgQIAAAQIECBAgQIBACNw/oigOvpgIAQIECBAgQIAAAQIECBAgQIAAAQIECBAgQIAAAQL5Ctw4pvbTiFQg/HrEIRE2AgQIECBAgAABAgQIECBAgAABAgQIECBAgAABAgQyFLh8zOmbEak4uBJx6wgbAQIECBAgQIAAAQIECBAgQIAAAQIECBAgQIAAAQIZCmyLOb0jovhq0WdmOEdTIkCAAAECBAgQIECAAAECBAgQIECAAAECBAgQIEBgVSAVBIvi4Omxv50MAQIECBAgQIAAAQIECBAgQIAAAQIECBAgQIAAAQJ5Cvx6TGtvRCoQ/izi+hE2AgQIECBAgAABAgQIECBAgAABAgQIECBAgAABAgQyFLh2zOnciOLtwcdlOEdTIkCAAAECBAgQIECAAAECBAgQIECAAAECBAgQIEAgBA6J+HxEURw8Nfa3RtgIECBAgAABAgQIECBAgAABAgQIECBAgAABAgQIEMhQ4J9jTkVxcFfsH5nhHE2JAAECBAgQIECAAAECBAgQIECAAAECBAgQIECAAIEQ+L8RRXEwfT6ACgECBAgQIECAAAECBAgQIECAAAECBAgQIECAAAECeQrcMaa1ElEUCN+Q5zTNigABAgQIECBAgAABAgQIECBAgAABAgQIECBAgACBI4LgBxFFcfCs2L8SFgIECBAgQIAAAQIECBAgQIAAAQIECBAgQIAAAQIE8hM4IKb08YiiOJg+757fNM2IAAECBAgQIECAAAECBAgQIECAAAECBAgQIECAAIEk8A8R5eLgS7AQIECAAAECBAgQIECAAAECBAgQIECAAAECBAgQIJCnwENjWuXi4Dfi+NA8p2pWBAgQIECAAAECBAgQIECAAAECBAgQIECAAAECBBZb4GYx/Z9FFAXCPbF/m8UmMXsCBAgQIECAAAECBAgQIECAAAECBAgQIECAAAECeQpcKaZ1ZkRRHEyfz8pzqmZFgAABAgQIECBAgAABAgQIECBAgAABAgQIECBAYLEF9ovpvy+iXBz8VBzvv9gsZk+AAAECBAgQIECAAAECBAgQIECAAAECBAgQIEAgT4HnxLTKxcH0NaM3yHOqZkWAAAECBAgQIECAAAECBAgQIECAAAECBAgQIEBgsQXuHdMvFwfT/omLTWL2BAgQIECAAAECBAgQIECAAAECBAgQIECAAAECBPIUuF5M6/yIcoHwA3G8LcJGgAABAgQIECBAgAABAgQIECBAgAABAgQIECBAgEBGAofHXL4cUS4O7orjozKao6kQIECAAAECBAgQIECAAAECBAgQIECAAAECBAgQIBACWyPeFFEuDqb9B0bYCBAgQIAAAQIECBAgQIAAAQIECBAgQIAAAQIECBDITODJMZ9qcfCNmc3RdAgQIECAAAECBAgQIECAAAECBAgQIECAAAECBAgQCIG7ROyJKBcIz4rjK0XYCBAgQIAAAQIECBAgQIAAAQIECBAgQIAAAQIECBDISODomMvZEeXiYNr/tQgbAQIECBAgQIAAAQIECJQElkr7dgkQIECAAAECBAgQaBZ4QJy6WfPpLa+Lc/+xznmn6gVOiuaD6k8tZOtpMeu6r8M8PNqfFrFfRN323Gj8Tt2JBWk7IOb5hogrVOb7D3H8b5W24vDZsXNgceBzbIGnx5U/HvtqFxIgQIAAAQIECBAgQIAAAQIECBAgQIAAgQELvDrGXn0zqXz8X3H+0AHPb15DP2cD17LxIuz/1TqJeOY6VqfGuW3r3Jv7qRfV2Hwj2tb7M7mr5p5FWGPTzvHocLMRIECAAAECBAgQIDBwgUX+C+TAU2f4BAgQIECAAAECPRM4OsbzvJ6NyXDyEkhvbn28YUp3jPYnN5zLvfmeMcFHVya5N44fGHFBpd0hAQIECBAgQIAAAQIECISAAqFlQIAAAQIECBAgQKA9gUdEV3dqrzs9EVgjsBJH9404b03rZQdPjd1bXna4EHvXjFmeXDPT9PWhH6lp10SAAAECBAgQIECAAAECIaBAaBkQIECAAAECBAgQaFfg5dHdYe12qTcClwp8M/Z+/9KjtTtLcfjaiEVZf+n3GNN8q787+Jloe1qEjQABAgQIECBAgAABAgQaBNJfIG0ECBAgQIAAAQIECLQncGR09fyI322vy6x72towu7OifRG/HvKHDR7l5tfEwV0i0ldoVrdjo+HFEfevnsjwOH3l6m0r87oojtPcL6601x2m3yjsSzE1/d386LpBRtuZEePMp+H21pt3t96jDgkQIECAAAECBAgQIECAAAECBAgQIECAQE8FXh3j+p8J4ld7Oo++DeucBtPj+zbQno0nFbZSgatpTeZeIPzlmPuemvn/YbQNcUv/YUFTLq87xAkZMwECBAgQIECAAAECBAgQIECAAAECBAgQyEFg0gLht2PSO3KYeMdzUCDcPHD6vcH0NlddYWlXtB+z+a57feeVY3TfjajO+7RoG+rPaCgQ9nrJGRwBAgQIECBAgACB/ASG+pen/DJhRgQIECBAgAABAkMV+HEM/FM1gz8i2l5Q066JQFsCH4+OntLQ2eHRnn6fL7efldgac3pVxP+KKG/nxcEJEXvLjfYJECBAgAABAgQIECBAgAABAgQIECBAgAABAtMINL1BmH4r7/oRP4uovtGUju8WYWsW8AZhs804Z9J/9HlqRN3aS23PGqeTAV3zhIa5njCgOdQN1RuEdSraCBAgQIAAAQIECBAgQIAAAQIECBAgQIDAnAWaCoTfWx3XifFZV6T572i/3JzH3ufHKxBOn51rRBdnR9Stv/Q7fXeY/hG96OEWMYqLI6rzfFMvRjfdIBQIp/NzNwECBAgQIECAAAECBAgQIECAAAECBAgQ6ERgowJhepMr/QZatXiRjtNXItrqBRQI610mbb1X3FC39lLbmRGXn7TDnl2/I8bzzYjqHL8fbek3CYe+KRAOPYPGT4AAAQIECBAgQIAAAQIECBAgQIAAAQJZCjQVCL9bmu3RsZ9+C61axEjH94iwjQooEI6abLblxXFj3dpLbf+62U57ct/rG+aWy58rBcKeLDTDIECAAAECBAgQIECAAAECBAgQIECAAAECZYGmAmH6CtHy9uA4qCvSpELiFcoX2r9EQIGwvYVwUHT1xYi69ZfaHt7eo2ba0yMa5vTSmY6i24cpEHbrq3cCBAgQIECAAAECBAgQIECAAAECBAgQILApgaYC4XdqentbtNUVaV5Tc+2iNykQtrsCbhzd/Syibv39JNqv0+7jOu/tBvGEn0ZU55O+bvTQzp8+uwcoEM7O2pMIECBAgAABAgQIECBAgAABAgQIECBAgMDYApMUCK8avf4wolrUSMe/MfYTF+NCBcL28/yY6LJu7aW20yP2b/+RnfR4cPT6hYjqXPZE2207eeL8OlUgnJ+9JxMgQIAAAQIECBAgQIAAAQIECBAgQIAAgUaBpgLhtxvu+K1orxY20vFZEVdsuGcRmxUIu8n626PbuvWX2p7fzSNb7/VlDXP4i9afNP8OFQjnnwMjIECAAAECBAgQIECAAAECBAgQIECAAAECIwJNBcIzR668rOGU2K0r0rzusksWfk+BsJslcJXoNhWj69bf3mj/1W4e21qv92kY+2eifShvQE6CoUA4iZZrCRAgQIAAAQIECBAgQIAAAQIECBAgQIDAjASaCoRnrPP8y8W59IZhXZEmvWFo27JFgbC7VZCKgKkYWLf+UvEwFRH7uB0bg9oVUR13+m3FG/ZxwC2MSYGwBURdECBAgAABAgQIECAwvsDS+Je2c+XOnTt3LC0tHZV6W1lZOWN5eTn9xS/bzXzlN6fFbT1bz9bzcAX8+fXnd7ird3TkA1vP58YMHhzx7oitldm8OI4/GJF+q7BxG9h8G+cx6YnDDjvsyOOOO26Hvy9MKrfm+nfFUfo60T9c07rvIP1O5isi7l5zrrOmMdbz9nh4esP28JpB/Gm0fa6mvbdNY8y3t2PfzMDM1/+/sZl109d7rGfrua9rczPjsp6t582sm77eYz1bz31dm5sZ17zX87bNDHqae1aLg+kvfduLQuE0/fX9XvPte4amG5/8TufX97vlt+8Zmm588judX9/vlt++Z2i68fUwv+ktp/W298bJv6654MrR9nc17WuaejjfNePr6mDbtm37rc69q0f0ot8Z5PfJMdFPNUz2btH+2IZznTSPMd+T4sE3r3l4KqYP5bcTLx3+GPO99Nocdsw3hyw2z0F+m21yOCO/OWSxeQ7y22yTwxn5zSGLzXOQ32abHM7MO78zLxDmkDRzIECAAAECBAgQIFAS2KhAmC59UsRXS/cUu/eOneOLA58EOhC4OPr8nYifNvT97Gi/UcO5WTenguWJNQ89P9pOiEhfl2ojQIAAAQIECBAgQIAAgRYEZl4gTF8rGuPenWJ1v4Vp9LcL8+1vbtoYmfy2odjfPuS3v7lpY2Ty24Zif/uQ3/7mpo2R9TC/4xQIL4y5PyBiT43B30Rb42/B9XC+NVNov2nv3r17Vufefuc96nFG+f1KTPkxDdM+INr/KeKghvOtNq8z36vHg06JqH4Vb3p+esvxW2lnaNs68x3aVMYar/mOxTTYi+R3sKkba+DyOxbTYC+S38GmbqyBy+9YTIO9SH4Hm7qxBr5o+R0LxUUECBAgQIAAAQIEeijw6hhTKgZW45sTjPVpNfen/t44QR+5XXpOg4k3K9vP9L80WKc1+JL2Hzd2j+k/XD01ovpnKx2/eexehn3hkQ3zTwbXHfbUjJ4AAQIECBAgQIAAAQIECBAgQIAAAQIECAxXoKlA+I0JppR+i3s5oq4Qct8J+snpUgXC2WXz8vGoMyPq1l9qu+fshrLmSX/WMKbvR3v6rc5F2BQIFyHL5kiAAAECBAgQIECAAAECBAgQIECAAAECgxNoKhB+fcKZXC+uT185Wi3SnB1tV5uwrxwuVyCcbRZvH49LX3VbXX/p+EcR14iY5Xa7eNhKRN14fn2WA5nzsxQI55wAjydAgAABAgQIECBAgAABAgQIECBAgAABAnUCTQXCr9VdvEHb4+J8XUHkLRvcl+NpBcLZZ/XpDesvrcn3Rczqt+qvGM/6dsNYXhbti7QpEC5Sts2VAAECBAgQIECAAAECBAgQIECAAAECBAYj0GaBcGvM+gMRdUXCBw5GpJ2BKhC24zhJL0tx8Ucj6tZfanviJJ1Nce1bG8bwzWg/bIp+h3irAuEQs2bMBAgQIECAAAECBAgQIECAAAECBAgQIJC9QFOB8KubnPnRcd95EdUizY+j7eoRi7IpEM4n00fHY3dFVNdfOr444uYRXW5Nb9Gmrz9NXzu6aJsC4aJl3HwJECBAgAABAgQIECBAgAABAgQIECBAYBACTQXCr0wx+gfFvXUFmn+bos+h3apAOL+M/U7D+ktrMn117qEdDe2m0e9FEXVr/9kdPbPv3SoQ9j1DxkeAAAECBAgQIECAAAECBAgQIECAAAECCynQVCD88pQa6XcH6wolD56y36HcrkA430y9Mh5ft/5S2ykdDC19dWgqPtY98zPRvn8HzxxClwqEQ8iSMRIgQIAAAQIECBAgQIAAAQIECBAgQIDAwgl0VSC8akj+MKJaMDk32o5YAGUFwvkmOb0l2FSwS2syvWXY5tb05yi9UXijNh80sL4UCAeWMMMlQIAAAQIECBAgQIAAAQIECBAgQIAAgcUQaCpsfKmF6f9m9FEtEKbjd7TQd9+7UCCcf4bS7w2m3x2sW4OpUH10RBtbeiu27hmp7Y/aeMCA+1AgHHDyDJ0AAQIECBAgQIAAAQIECBAgQIAAAQIE8hVoKhB+saUpvzL6qSuePKyl/vvajQJhPzLzxw3rL63Jj0TsN+UwrxP3XxBRt8Y/GO3bpux/6LcrEA49g8ZPgAABAgQIECBAgAABAgQIECBAgAABAlkKNBUIv9DSbHdEP2dGVAsou6ItFQ9y3RQI+5HZVKB7X0R1/RXHz5himAfGven3BYu+yp/nRfsxU/Sdy60KhLlk0jwIECBAgAABAgQIECBAgAABAgQIECBAICuBrguECetXIvZGlAsoaf/dEbluCoT9yezVYyg/iqiuv3S8EnG7iM1sfxc31fWZ2h6ymQ4zvEeBMMOkmhIBAgQIECBAgAABAgQIECBAgAABAgQIDF+gqUD4+Zan9oLor66Y8oiWn9OX7hQI+5KJfeO4Z3zUrb/UdkbE5fZdNvb/bfp9zdTfW8buJf8LFQjzz7EZEiBAgAABAgQIECBAgAABAgQIECBAgMAABZoKhJ9reS4HRX9fjqgWac6PtqMjctsUCPuX0b+NIVXXX3H8+gmGe1Rc25TfH8S5q0zQV+6XKhDmnmHzI0CAAAECBAgQIECAAAECBAgQIECAAIFBCjQVCD/bwWxuHn3ujiiKMsVn+o24rR08b55dNhWQjp/noBb82alInd6MLdZd9XOcrwVdivs/uk4f6U1F22UCCoSXWdgjQIAAAQIECBAgQIAAAQIECBAgQIAAAQK9EZhlgTBN+qkR1cJMOn5UOpnRpkDYz2TeMIZ1YUTdGrwg2o/bYNh/0XBv6u/kDe5dxNMKhIuYdXMmQIAAAQIECBAgQIAAAQIECBAgQIAAgd4LNBUIP9PRyNMbWJ+MqBZoUnHm2I6eOY9uFQjnoT7eMx8dl1XXX3G8HOf2b+jmztG+t+He/4r2wxruW+RmBcJFzr65EyBAgAABAgQIECBAgAABAgQIECBAgEBvBZoKhJ/ucMTXjb7r3uL6QLTn8lWjCoQdLqAWun5b9FEUBaufz63p/6rRdlbDPXui/fY192jaskWB0CogQIAAAQIECBAgQIAAAQIECBAgQIAAAQI9FGgqEH6q47E+NvqvFmbS8WM6fu6sulcgnJX05p5z5bjtuxF1azC9JZjeFiy2VLR+d0TdtantOcWFPkcEFAhHSDQQIECAAAECBAgQIECAAAECBAgQIECAAIH5C8yrQJiKLqdGVIsuP4m2n5s/y9QjUCCcmrDzDtb7ytBUPLzS6gieGJ/VdVocfzbOHbB6nY9RAQXCURMtBAgQIECAAAECBAgQIECAAAECBAgQIEBg7gJNBcLTZzCyo+IZuyKKYkvx+aFo2zaD53f5CAXCLnXb6zt9nWix7qqf6WtIbx2xu+Gai6L9xhG2ZgEFwmYbZwgQIECAAAECBAgQIECAAAECBAgQIECAwNwEmgqEyzMa0QnxnGphJh2fOKPnd/WYcxvmdXxXD9TvpgT2j7s+GVG3BlPbBeuc++M4Z1tfQIFwfR9nCRAgQIAAAQIECBBoWWCp5f50R4AAAQIECBAgQGDRBFJxZBbbKfGQe0Xcs/KwZ8Xx2yO+Wmkf+uEtYwLpjbTct/RVse8awCQvjjHeNyK9MXtIzXjr2tJlH45Ibx/aCBAgQIAAAQIECBAgQIAAAQIECBAgQIAAAQKDE2h6gzC9VTWr7SrxoB9EVN/i+ki0DfWrRpu+YrQ6x1yPvz6rxdPScx5Ss/6acnN+XHtMS8/NvRtvEOaeYfMjQIAAAQIECBAg0DOBof4jQs8YDYcAAQIECBAgQGCBBVJxZFZbKg4+vOZh6fffHl/TrolA2wInR4evH7PTx8V1/zXmtS4jQIAAAQIECBAgQIAAAQIECBAgQIAAAQIECPROoOkNwk/MYaSviGdW39q6MNquM4exTPvIpt8grM4v1+OhvUGY8n25iDMi1svJW9OFtrEFvEE4NpULCRAgQIAAAQIECBBoQ8AbhG0o6oMAAQIECBAgQGCRBVKRZNbbY+OBZ1YeemAcvzJiv0p73w/n4dd3k76PL621FOttl4+TQ1uL683HOQIECBAgQIAAAQIECGQloECYVTpNhgABAgQIECBAYEEEzot5PiiiWly7ZbT9UYSNQFcCW6PjV0Wk38Ncb7ttnPyz9S5wjgABAgQIECBAgAABAgTmJ7A0v0d7MgECBAgQIECAAIEsBKpFullN6tR40AsjTqw88GlxnL7e8YuV9r4epoJT3fbIaHxL3YnM2vYMbD5PiPHeecwx/0lc956ID495vcsIECBAgAABAgQIECBAgAABAgQIECBAgAABAr0SaPoNwv+Y4yjT1zx+KSIVKcvxn3E8lK93PKcy9mIex0e7rV8C6Q3V3RFFjsb5TL9VmL5u1La+gN8gXN/HWQIECBAgQIAAAQIEWhbwFaMtg+qOAAECBAgQIEBg4QRSkWRe28/iwQ+IWKkM4GZx/MRKW18Pm94g7Ot4F3VcO2Li/xTR9C00P2yASYWvlzWc00yAAAECBAgQIECAAAECcxJQIJwTvMcSIECAAAECBAgQaEngk9HPM2v6Sr//dsOa9r41zbPA2jeLPo/n72NwxzQM8JRov1PERQ3nfzPaH9FwTjMBAgQIECBAgAABAgQIECBAgAABAgQIECBAoLcCTV8x+pEejDi91ZW+VrT6lY/L0db0xlcPhn3JEHzFaF8y0TyOh8ap6toqjr8a5w5dvfXR61z3kzh33dXrfIwK+IrRURMtBAgQIECAAAECBAgQIECAAAECBAgQIEBg7gJNBcIPz31k+wZwnfi4MKIo3BSf6U3CPm8KhH3OzpYtaV2l4l6xnsqf6Y3BnZXhv63h2nTfZyIOqFzvcJ+AAqGVQIAAAQIECBAgQIAAAQIECBAgQIAAAQIEeijQVCD8UI/G+pgYS7mAk/Yvjrhxj8ZYHYoCYVWkP8epmJeKetU1VRyfWDPUK0Xbd9e5529q7tG0ZYsCoVVAgAABAgQIECBAgAABAgQIECBAgAABAgR6KDCEAuHWcHt/RFHAKT4/HW3be2iahqRA2NPExLBSMa9YQ9XPd8S5tN7qtl+Jxj0R1XuK43vU3bTgbQqEC74ATJ8AAQIECBAgQIAAAQIECBAgQIAAAQIE+inQVCD8YM+GmwoNuyKKYkzx+fSejbMYjgJhIdGvz3vGcIq1U/08K85dZYPh/vk69/8wzl19g/sX7bQC4aJl3HwJECBAgAABAgQIECBAgAABAgQIECBAYBACTQXC03o4+gfGmKpFnd3RdpMejlWBsH9JOSKGdHZEdQ2l470Rd4nYaEtvrH48oq6P1Pa+iG0Rtn0CCoRWAgECBAgQIECAAAECBAgQIECAAAECBAgQ6KFAU4HwAz0caxrSmyKqxZnPRtv+6WSPNgXCHiUjhrJfRCp6V9dOcfzsCYZ7bFx73jp9PXmCvnK/VIEw9wybHwECBAgQIECAAAECBAgQIECAAAECBAgMUmBoBcIrh/L3I4rCTvH5rJ7pKxD2KyFPrVkzxdr5RJyb9Lcs77dOf+mt1ltG2LZsUSC0CggQIECAAAECBAgQIECAAAECBAgQIECAQA8FmgqEp/ZwrMWQ7hk7RXGn+ExFmZsVF/TgU4GwB0lYHcLt4nMlolgr5c/0JuC1Vq+b9OOUhj5T/9+IOHzSDjO8XoEww6SaEgECBAgQIECAAAECBAgQIECAAAECBAgMX6CpQPj+nk/t5BhfudCT9j8fcUBPxq1A2I9EXCGG8e2I6lopjtObgJvdDo0bvxZR9FX9fM1mO87oPgXCjJJpKgQIECBAgAABAgQIECBAgAABAgQIECCQj0BTgfB9PZ9iejvrWxHVosxJPRm3AmE/EvHmmjVSrJlXtjDE9Nbqxes840EtPGPIXSgQDjl7xk6AAAECBAgQIECAAAECBAgQIECAAAEC2QoMtUCYEnLHiL0RRcEnfaavkuzD778pEEYi5rw9Kp5fXhvl/a/GufQGYBvb/41Oyn2X98+Pc9du4yED7UOBcKCJM2wCBAgQIECAAAECBAgQIECAAAECBAgQyFugqUD43oFM+y9jnOWCTNr/UsSBcx6/AuF8E3CjePyFEdW1kY4vitgZ0da2NTp6d0Tds1LbJyO2RyzipkC4iFk3ZwIECBAgQIAAAQIECBAgQIAAAQIECBDovUBTgfA9vR/5vgGmQuAXI6rFmefOefwKhPNLwMENa6JYIyd2MLSrRZ8/iCieUf18XgfPHEKXCoRDyJIxEiBAgAABAgQIECBAgAABAgQIECBAgMDCCTQVCNMbUUPZ0ttguyPKRZk9cXyrOU5AgXB++C+rrIXyunhHnEtv/HWx3S06rX7lbfHs1H6XLh7a8z4VCHueIMMjQIAAAQIECBAgQIAAAQIECBAgQIAAgcUUyKFAmDL3lIiiGFN8fiXaDkon57ApEM4BPR55fESR/+rn9+LcVToe1gvWef5ZM3h+x9ObuHsFwonJ3ECAAAECBAgQIECAAAECBAgQIECAAAECBLoXaCoQvqv7R7f6hKXo7RMR1aLQ81t9yvidKRCOb9XWlcdER+dGVNdAOk5v8N05ouvtgHjApyLqxpDaunyDseu5baZ/BcL11a4Vp+8T8biIJ0U8IuK2EWkd2QgQIECAAAECBAgQIECAAAECBAgQIECAQGcCTQXCd3b2xO46/vno+qcR5eJM+qrR9A/us94UCGcrngrEH4so5768f9IMh5PW4U/WGcvjZziWeT9qUQqEtwjo9L89RfzCBvC3i/Mfiiiv0fL+D+NcWifpN1ZtBAgQIECAAAECBAgQIECAAAECBAgQIECgdYGmAmF602mI2x/EoMv/0J72vxZx8Iwno3cO5MQAADL/SURBVEA4W/BUAKzmvThOb5Zun+1wtjxknfFcFOduMuPxzOtxi1IgvFUl3zdtAN8/2v+5cm2xTus+z4xrb9TQl2YCBAgQIECAAAECBAgQIECAAAECBAgQILBpgdwKhFtD4r0R1X9s/+tNC23uRgXCzblt5q47xU3pK0SrOU/H50Wkr3Gcx7ZeIegrMaBD5jGoGT9TgXAt+MvisLpOPxxtL494YcSbIn4cUb4mvU14tQgbAQIECBAgQIAAAQIECBAgQIAAAQIECBBoTaCpQPjvrT1h9h1dMx5Z/S26VEC6wwyHokA4G+yrxGO+F1EuqJT37zebYdQ+5XLR+q2I8njK+6+ovSuvRgXCy/KZvna0nP8vxPENLzt96d6hsfe8iPK1J1961g4BAgQIECBAgAABAgQIECBAgAABAgQIEGhBoKlA+PYW+p5nFw+Ih5f/gT3tfyNiVm9tKRB2n/30tmj6KtxqnovjV3Y/hA2fcOu4YiWiGFP18/gNexj2BQqEl+Xvz0vrYE/sH3XZqdq9fyxdn37b8IDaqzQSIECAAAECBAgQILBGYNuaIwcECBAgQIAAAQIECEwqkAoZQ97SP66/sTKBY+P4OZU2h8MV+MMY+l0bhp9+d/LRDedm2fzReNjT1nng38e5o9c571Q+Aj9fmsrnY/+M0nHdbvrK0U+vRvpK2mvUXaSNAAECBAgQIECAAIG1AktrD7s/2rlz546lpaVL/gvAlZWVM5aXl3d1/9T5PcF85Xd+q6/9J1vP1nP7q2p+PVrP1vP8Vl/7T7aerecWVtUjoo/bRFy11NcjY/8NEe8vtc1s97DDDjvyuOOO2+HvC1OT3yx6SG9k1W0XR+N9Ii6oO9lF2wb/e5XGeeeI29c8e0e0vXb1XHrTcBDbBvMdxBwmGWRL803rstiuEDvpDdj1/kOM5Th/k+KGWX62NN9ZDnmqZ5mv/39jqgXUs5utZ+u5Z0tyquFYz9bzVAuoZzdbz7NdzzN/g3C1OLg91t32olDYszXY6nDMt1XO3nUmv71LSasDkt9WOXvXmfz2LiWtDkh+W+XsXWc9zO96/3A9td+M5vujGOjDK4NN/yj/8oj0O18z37Zt27bf6txn/uxZPrDj/B4Wc3ldRPr7V932xGg8ve5EV20bzHdvPDf9FuKPG55/q2h/esO5XjZvMN9ejnmaQbU03y+XxnBE7J8UsV+prTe7Lc23N/PZaCDmu5HQsM/L77Dzt9Ho5XcjoWGfl99h52+j0cvvRkLDPj/v/M68QDjsdBk9AQIECBAgQIAAgRGBTguEI0/rruGt0fXJle6PjuPnVdocDkfgxTHUazUMN/0mYfpqxr5t34kBPWydQaWi5h3XOe/U8AXS77qmYnGxPSF2PhdxYsS1i0afBAgQIECAAAECBAhMJzDzAmH6WtEY8u4Uq/vTzaDnd5tvzxM05fDkd0rAnt8uvz1P0JTDk98pAXt+u/z2PEFTDq+H+e20QDjj+T4u0vOtSorS14/eqdLW+eHevXv3rM6982fN8wEd5veEmFd6G69uOysaHxTR6dqte/CY831T3PuSuvujLf0d9tURV2w436vmMefbqzFPM5iW5vvJGEM1/9eNtudHfDXizIi0Bh4akd4wnNvW0nznNv5JH2y+k4oN63r5HVa+Jh2t/E4qNqzr5XdY+Zp0tPI7qdiwrl+0/A4rO0ZLgAABAgQIECBA4DKB9A/SqaBSjbdcdkkWe3eIWaS3d8rzTP+R3+Edze6cyrOK5x7f0fMWodvjYpLpdwULy/Jnym36nb++bwfFAD8fUR57ef/NfZ/AhOM7cp25puJYLlv6mthyHm/aMLGlaH9mxJ7K9eV7i/3T4po7RdgIECBAgAABAgQIECBAgAABAgQIECBAgEDrAk0FwtwKFQkufa1o8Y/vxedLWxfd16ECYbuw+0d36XcFi7xVP9PvuQ1lu2EM9MKI6hyK40cNZSJjjFOBsB7pF6L5hRHfjSjy3vSZ/jcqFZZtBAgQIECAAAECBAgQIECAAAECBAgQIECgNYGmAmH6OsTctgNjQl+IqP5D/K92MFEFwnZRUzGlmrfi+ONxbnu7j+u8t99fZz6peHiDzkcwmwcoEK7vnL5a9mYRj49I/1HGrohiXZc/XxDtNgIECBAgQIAAAQIECBAgQIAAAQIECBAg0JpAU4Hwja09oV8dpa/+uzii/I/v347jHS0PU4GwPdBfq+SrnLvz4tyx7T1qpj2lr/Etz6W8n76GNIe3xhQIJ1tS6U3Zu0Z8MKK8HtJXkl4vwkaAAAECBAgQIECAwAYC6b/CsxEgQIAAAQIECBAgQKAqkL6m8hmVxiPiOL2hZuufwNVjSK9YZ1i/F+e+uc75Pp96SAzuvxsGeP1of37DOc35CqT/eOGdEbeP+KvSNNO/cfxi6dguAQIECBAgQIAAAQIECBAgQIAAAQIECBCYSqDpDcI3TNVrv2/eL4aXvpay/IZO2r9bi8P2BuH0mKko8v6Iap6K41dO/4i59/BLMYL0dlgxp+rnveY+wukGsChvEN62ksObTMd2yd0Hx/9dKfX77Bb61AUBAgQIECBAgACB7AXSXyRtBAgQIECAAAECBAhsXiAVKnLdUkHmARHpt97K20vj4HLlBvtzFXhyPD0V0Oq2r0Xjo+tODKzt1BjvSeuM+WVxLr3hapuPwM3jsemrYIu4fMMwUiG0vJ1bPoj9W0WkrzIuIv3u4Ebb7rjgotJF1f+9Kp2yS4AAAQIECBAgQIAAAQIECBAgQIAAAQIEJhNoeoPwXybrZpBXpwJT9Y2tV7U0E28QTgd5m7i9/PZUOU+paJJ+SzKXbSkm8h8R5TmW9z8Q54b6H8EO4Q3Cw8M3FQIPi6hut4iGci7uXb1g9fiU0nWpkJd+S7C8XTkOym+Kvi6Ot5YvqNn/rWgb59k1t2oiQIAAAQIECBAgQIAAAQIECBAgQIAAAQLrCyxygTD9A/17Isr/CJ/277E+2VhnFQjHYqq9KL3FeUZENS/F8Ym1dw278ZgY/q515vyUgU6v7wXCXwjXH626/zA+b1xx3h7H5T/L6Tcjb1K55oQ4Lhf//q1yvjh8W+wUazh9viLiqsXJ0mf636VUHLwgorg+jeGQCBsBAgQIECBAgAABAgQIECBAgAABAgQIEGhFoKlA+PpWeu9/J+nrG8sFgPQP8t+LuMKUQ6/2WfxD//FT9rsIt/9rTLLwqn7+e5xLBZQct9+JSVXnWxyntylvPcBJ971A+NqKefrfw+r2yGgo8pA+UzHwkxGpEPj1iPK5i+P4uhF127WjsVz0S/elt2HTmn5RxDMjTon4SkS5z7T/uxE2AgQIECBAgAABAgQIECBAgAABAgQIECDQmkBTgfCfW3tC/zu6fwyx+g/yr5ly2AqEmwP8vZpcFLlJhdurbK7bwdz1inXm/604t2MwM9k30L4XCNNXfRbrK302/bmvvv1Xvqe8v9GbnreLZ5xdeWb5/ur+3rj2TyNsBAgQIECAAAECBAgQIECAAAECBAgQIECgVYGmAmH6h/NF2ureWrvXFAAKhJPj3SBu+WlEtUiSjlOh5M4RuW+HxgS/GlFnkNqGVrjve4FwZ5j+eNU7fTb9tuV+ce7REU1/rr8V5+4WMc6WfvPwTyLWKxSm9f6uiCG+NRrDthEgQIAAAQIECBAgQIAAAQIECBAgQIBA3wUUCPdl6ErxcVZEuTCTjq+47/TE/7epkOArRuspD4rmz0eU/cv7J9XflmVrKlKlr54sz7+8/9ABzbrvBcJEmX7z8jarn+l4vS29wXmHiEdGPCPihIibRxwYMel2cNyQCpT/J+JJEX8e8YSI34i4WoSNAAECBAgQIECAAIFNCCxt4h63ECBAgAABAgQIECBwmUAqSCzS9qOY7MMi0lcJFttVY+dvI+5TNEzw2fQ7eentoStP0E9Ol+6KyaTfaKvbXhCN1687EW2fiNjoqxsbbh1k8+kx6idHPK9h9H8V7R+OSL9VZ5te4Nzo4iNjdpPW8GmrMeYtjZelt2WXV6PxIicIECBAgAABAgQIECBAgAABAgQIECBAgEAXAk1vEL62i4cNoM+XxRjLb2ul/XtvYtxNbxBW+16k47s2OCbfJodUkDm24b6cm1OB+Z0RTS6finMHDABgCG8QDoDREAkQIECAAAECBAgQIECAAAECBAgQIECAQLsCTQXC17T7mMH0dliM9JsR5cLMD+J40rf+FAjXGibPugLhUdG+ntV94/yibukN1rMiymuxvP/CAcAoEA4gSYZIgAABAgQIECBAICeBbTlNxlwIECBAgAABAgQIEJiZwPnxpAdF7C09MRUH/650bLcdgaXoJr2pmn4Drm47JRoX9U3W5PH9iAdFpKJg3faYaLxb3QltBAgQIECAAAECBAgQIECAAAECBAgQIECAAIH1BJreIEzti7w9NyZfflsr7R8/Ach6b8VV+12U4+obhP+vxriwSL+vd+gE3jlf+pfrOKW3W6/W48l7g7DHyTE0AgQIECBAgAABAgQIECBAgAABAgQIEFhcgaYC4T8uLsklM0+/7/b5iKJglT5/FJG+9nGcTYFwrV3yKxcIfymO90SUfYv9i6L9phG2fQL7x8dyROFT/Xx3nEu/WdjHTYGwj1kxJgIECBAgQIAAAQIZC/T1L0cZk5saAQIECBAgQIDAQAV+McZ9VM3YvxVtH69pX6SmG8dkPxZxYGnSb479e5WOm3bTNamwY7tM4LTYPWv18I7x2VRs/U6c+8jqdT72CVwzPm69DsZ749zZ65yf16mD48H3aHj4O6L9vIZzmgkQIECAAAECBAgQIECAAAECBAgQIECAAAECcxP43Xhy9Y2t+81tNB5MgAABAgQIECBAgAABAgQIECBAgAABAgQIECBAgEDnAq+NJ5SLhOlNrT7/7lvnIB5AgAABAgQIECBAgAABAgQIECBAgAABAgQIECBAIGeBQ2NyX4koFwnfmvOEzY0AAQIECBAgQIAAAQIECBAgQIAAAQIECBAgQIDAogvcKAB+GlEuEj5w0VHMnwABAgQIECBAgAABAgQIECBAgAABAgQIECBAgEDOAg+JyZULhOfE8dVznrC5ESBAgAABAgQIECBAgAABAgQIECBAgAABAgQIEFh0gX8MgHKR8O2LDmL+BAgQIECAAAECBAgQIECAAAECBAgQIECAAAECBHIWOCQm96WIcpHwwTlP2NwIECBAgAABAgQIECBAgAABAgQIECBAgAABAgQILLrADQKg/HuE58bxEYuOYv4ECBAgQIAAAQIECBAgQIAAAQIECBAgQIAAAQIEchZ4UEyu/BbhO3OerLkRIECAAAECBAgQIECAAAECBAgQIECAAAECBAgQILBlyymBUC4SPgwKAQIECBAgQIAAAQIECBAgQIAAAQIECBAgQIAAAQL5ChwcU/tCRFEk3BX7R+Y7XTMjQIAAAQIECBAgQIAAAQIECBAgQIAAAQIECBAgQOB6QfCTiKJI+B4kBAgQIECAAAECBAgQIECAAAECBAgQIECAAAECBAjkLXBCTK8oEKbP38t7umZHgAABAgQIECBAgAABAgQIECBAgAABAgQIECBAgMDLg6AoEp4f+0cjIUCAAAECBAgQIECAAAECBAgQIECAAAECBAgQIEAgX4H0e4SfiyiKhO+P/a35TtfMCBAgQIAAAQIECBAgQIAAAQIECBAgQIAAAQIECBC4ThBcEFEUCR+FhAABAgQIECBAgAABAgQIECBAgAABAgQIECBAgACBvAXuH9MrCoSpWHhs3tM1OwIECBAgQIAAAQIECBAgQIAAAQIECBAgQIAAAQIE/iEIiiLhB2LfV41aEwQIECBAgAABAgQIECBAgAABAgQIECBAgAABAgQyFjgo5vbZiKJI+JiM52pqBAgQIECAAAECBAgQIECAAAECBAgQIECAAAECBAiEwM9HnB+RioQ/ifi5CBsBAgQIECBAgAABAgQIECBAgAABAgQIECBAgAABAhkL3DfmVrxF+KHY35bxXE2NAAECBAgQIECAAAECBAgQIECAAAECBAgQIECAAIEQeElEUSQ8kQgBAgQIECBAgAABAgQIECBAgAABAgQIECBAgAABAnkLHBjT+3REKhL+NOK4CBsBAgQIECBAgAABAgQIECBAgAABAgQIECBAgAABAhkLXDvmdl5EKhJ+NMJXjQaCjQABAgQIECBAgAABAgQIECBAgAABAgQIECBAgEDOAsfH5IqvGv2jnCdqbgQIECBAgAABAgQIECBAgAABAgQIECBAgAABAgQI7BP42/hIRcILI66zr8n/JUCAAAECBAgQIECAAAECBAgQIECAAAECBAgQIEAgV4EDYmKnR6Qi4cci9ouwESBAgAABAgQIECBAgAABAgQIECBAgAABAgQIECCQscC1Ym67IlKR8IkZz9PUCBAgQIAAAQIECBAgQIAAAQIECBAgQIAAAQIECBBYFfjt+EwFwp9FXH+1zQcBAgQIECBAgAABAgQIECBAgAABAgQIECBAgAABAhkLvCjmloqE/xmxlPE8TY0AAQIECBAgQIAAAQIECBAgQIAAAQIECBAgQIAAgRDYP+KTEalI+CcRNgIECBAgQIAAAQIECBAgQIAAAQIECBAgQIAAAQIEMhc4NuZ3bsRFETfMfK6mR4AAAQIECBAgQIAAAQIECBAgQIAAAQIECBAgQIBACPxmRHqL8PQIXzUaCDYCBAgQIECAAAECBAgQILBZgf02e6P7CBAgQIAAAQIECBAgMEOBL8WzLh/xGxF7Ik6LsBEgQIAAAQIECBAgQIAAAQIECBAgQIAAAQIECBAgkLFA+j3CT0RcHHHjjOdpagQIECBAgAABAgQIECBAgAABAgQIECBAgAABAgQIrAocHZ/nRHw6YnuEjQABAgQIECBAgAABAgQIEJhQYOuE1099+c6dO3csLS0dlTpaWVk5Y3l5edfUnfa4A/OV3x4vz4mHZj1bzxMvmh7fYD1bzz1enhMPzXq2nideND2+Ycz1nL5m9E0Rz4z4sx5PZ8OhjTnfDfsZygXm63+vhrJWxxmn9Ww9j7NOhnKN9Ww9D2WtjjNO69l6HmedDOUa69l67nKtbuuy87q+V4uD6b/03V4UCuuuy6XNfHPJZP085LfeJZdW+c0lk/XzkN96l1xa5TeXTNbPQ37rXXJpHTO/b475viDiSRE3HfLcx5zvkKe4Zuzmu4YjuwP5zS6layYkv2s4sjuQ3+xSumZC8ruGI7sD+c0upWsmJL9rOLI7mHd+Z14gzC6DJkSAAAECBAgQIECAwDwE/jgeuhzxyoj024Q2AgQIECBAgAABAgQIECBAYEyBmRcI09eKxth2p1jdH3Oow7zMfIeZt3FHLb/jSg3zOvkdZt7GHbX8jis1zOvkd5h5G3fU8juu1DCvmyC/6e8Ux0ccEfHUYc52388uxNj9/WioCdxg3BOs5w16GsZp8x1GnjY7SvndrNww7pPfYeRps6OU383KDeM++R1GnjY7SvndrNww7lu0/A4jK0ZJgAABAgQIECBAgMBQBO4RA00FtpsNZcDGSYAAAQIECBAgQIAAAQIECBAgQIAAAQIECBAgQIDAdALPjdu/EHHAdN24mwABAgQIECBAgAABAgQIECBAgAABAgQIECBAgACBIQhsj0F+NOKkIQzWGAkQIECAAAECBAgQIECAAAECBAgQIECAAAECBAgQmF7gmtHF9yNuOX1XeiBAgAABAgQIECBAgAABAgQIECBAgAABAgQIECBAYAgCd49BfjHiwCEM1hgJECBAgAABAgQIECBAgMC8BPab14M9lwABAgQIECBAgAABAi0LfC36OzLiVyLe03LfuiNAgAABAgQIECBAgAABAgQIECBAgAABAgQIECBAoIcCSzGm0yJu3cOxGRIBAgQIECBAgAABAgQIECBAgAABAgQIECBAgAABAh0IHBF9fiTioA761iUBAgQIECBAgAABAgQIECBAgAABAgQIECBAgAABAj0U+N8xpr/s4bgMiQABAgQIECBAgAABAgQIzF3AbxDOPQUGQIAAAQIECBAgQIBABwJfjz5vH3FxxJkd9K9LAgQIECBAgAABAgQIECBAgAABAgQIECBAgAABAgR6JpD+g8iTIw7u2bgMhwABAgQIECBAgAABAgQIECBAgAABAgQIECBAgACBjgSuEf3+aUd965YAAQIECBAgQIAAAQIECAxSwFeMDjJtBk2AAAECBAgQIECAwJgC58d1B0SkQqGvGh0TzWUECBAgQIAAAQIECBAgQIAAAQIECBAgQIAAAQIEhi7wkJjAIUOfhPETIECAAAECBAgQIECAAAECBAgQIECAAAECBAgQIDCeQPr2lN8e71JXESBAgAABAgQIECBAgAABAgQIECBAgAABAgQIECCQg8DVYhLXz2Ei5kCAAAECBAgQIECAAAECBKYR8BuE0+i5lwABAgQIECBAgACBIQlcEIPdEfGziN1DGrixEiBAgAABAgQIECBAgAABAgQIECBAgAABAgQIECCweYGrb/5WdxIgQIAAAQIECBAgQIAAAQIECBAgQIAAAQIECBAgMDSBbTHgpaEN2ngJECBAgAABAgQIECBAgAABAgQIECBAgAABAgQIECBAgAABAgQIECBAgAABAgQIECBAgAABAgQIECBAgAABAgQIECBAgAABAgQIECBAgAABAgQIECBAgAABAgQIECBAgAABAgQIECBAgAABAgQIECBAgAABAgQIECBAgAABAgQIECBAgAABAgQIECBAgAABAgQIECBAgAABAgQIECBAgAABAgQIECBAgAABAgQIECBAgAABAgQIECBAgAABAgQIECBAgAABAgQIECBAgAABAgQIECBAgAABAgQIECBAgAABAgQIECBAgAABAgQIECBAgAABAgQIECBAgAABAgQIECBAgAABAgQIECBAgAABAgQIECBAgAABAgQIECBAgAABAgQIECBAgAABAgQIECBAgAABAgQIECBAgAABAgQIECBAgAABAgQIECBAgAABAgQIECBAgAABAgQIECBAgAABAgQIECBAgAABAgQIECBAgAABAgQIECBAgAABAgQIECBAgAABAgQIECBAgAABAgQIECBAgAABAgQIECBAgAABAgQIECBAgAABAgQIECBAgAABAgQIECBAgAABAgQIECBAgAABAgQIECBAgAABAgQIECBAgAABAgQIECDw/9u5Y9zGYSAKoJtArnOEHEL3P4IOkSOkjoq1AidFpmIxHHD8igBerkBy3v+uBJgAAQIECBAgQIAAAQIECBAgQIAAAQIECBAgQIAAAQIECBAgQIAAAQIECBAgQIAAAQIECBAgQIAAAQIECBAgQIAAAQIECBAgQIAAAQIECBAgQIAAAQIECBAgQIAAAQIECBAgQIAAAQIECBAgQIAAAQIECBAgQIAAAQIECBAgQIAAAQIECBAgQIAAAQIECBAgQIAAAQIECBAgQIAAAQIECBAgQIAAAQIECBAgQIAAAQIECBAgQIAAAQIECBAgQIAAAQIECBAgQIAAAQIECBAgQIAAAQIECBAgQIAAAQIECBAgQIAAAQIECBAgQIAAAQIECBAgQIAAAQIECBAgQIAAAQIECBAgQIAAAQIECBAgQIAAAQIECBAgQIAAAQIECBAgQIAAAQIECBAgQIAAAQIECBAgQIAAAQIECBAgQIAAAQIECBAgQIAAAQIECBAgQIAAAQIECBAgQIAAAQIECBAgQIAAAQIECBAgQIAAAQIECBAgQIAAAQIECBAgQIAAAQIECBAgQIAAAQIECBAgQIAAAQIECBAgQIAAAQIECBAgQIAAAQIECBAgQIAAAQIECBAgQIAAAQIECBAgQIAAAQIECBAgQIAAAQIECBAgQIAAAQIECBAgQIAAAQIECBAgQIAAAQIECBAgQIAAAQIECBAgQIAAAQIECBAgQIAAAQIECBAgQIAAAQIECBAgQIAAAQIECBAgQIAAAQIECBAgQIAAAQIECBAgQIAAAQIECBAgQIAAAQIECBAgQIAAAQIECBAgQIAAAQIECBAgQIAAAQIECBAgQIAAAQIECBAgQIAAAQIECBAgQIAAAQIECBAgQIAAAQIECBAgQIAAAQIECBAgQIAAAQIECBAgQIAAAQIECBAgQIAAAQIECBAgQIAAAQIECBAgQIAAAQIECBAgQIAAAQIECBAgQIAAAQIECBAgQIAAgacWeJk9/b7vb9u2vV/nnuf5cRzH5+w7zDzPvPKd2bfss/RZn7M7NnN/fdbnmX3LPkuf9Tm7YzP312d9ntm37LP0WZ+zOzZzf33W55l9yz5Ln/U5u2Mz99dnfZ7Zt+yz9Hlun1+zA/27/+Pl4O2+fvt5Ufj3mU7/Nm+nNOMs8o0mnVbk2ynNOIt8o0mnFfl2SjPOIt9o0mlFvp3SjLPIN5p0WpFvpzTjLPKNJp1W5NspzTiLfKNJpxX5dkozziLfaNJppTrf6S8IO4VnFgIECBAgQIAAAQIECBAgQIAAAQIECBAgQIAAAQKrCUx/QXj9rOgd6ev6e3xezWzovuYd4lruYfkuF9nQheU7xLXcw/JdLrKhC8t3iGu5h+W7XGRDF5bvENdyD8t3uciGLizfIa7lHpbvcpENXVi+Q1zLPSzf5SIburB8h7iWe1i+y0U2dOFny3cIx8MECBAgQIAAAQIECBAgQIAAAQIECBAgQIAAAQIECBAgQIAAAQIECBAgQIAAAQIECBAgQIAAAQIECBAgQIAAAQIECBAgQIAAAQIECBAgQIAAAQIECBAgQIAAAQIECBAgQIAAAQIECBAgQIAAAQIECBAgQIAAAQIECBAgQIAAAQIECBAgQIAAAQIECBAgQIAAAQIECBAgQIAAAQIECBAgQIAAAQIECBAgQIAAAQIECBAgQIAAAQIECBAgQIAAAQIECBAgQIAAAQIECBAgQIAAAQIECBAgQIAAAQIECBAgQIAAAQIECBAgQIAAAQIECBAgQIAAAQIECBAgQIAAAQIECBAgQIAAAQIECBAgQIAAAQIECBAgQIAAAQIECBAgQIAAAQIECBAgQIAAAQIECBAgQIAAAQIECBAgQIAAAQIECBAgQIAAAQIECBAgQIAAAQIECBAgQIAAAQIECBAgQIAAAQIECBAgQIAAAQIECBAgQIAAAQIECBAgQIAAAQIECBAgQIAAAQIECBAgQIAAAQIECBAgQIAAAQIECBAgQIAAAQIECBAgQIAAAQIECBAgQIAAAQIECBAgQIAAAQIECBAgQIAAAQIECBAgQIAAAQIECBAgQIAAAQIECBAgQIAAAQIECBAgQIAAAQIECBAgQIAAAQIECBAgQIAAAQIECBAgQIAAAQIECBAgQIAAAQIECBAgQIAAAQIECBAgQIAAAQIECBAgQIAAAQIECBAgQIAAAQIECBAgQIAAAQIECBAgQIAAAQIECBAgQIAAAQIECBAgQIAAAQIECBAgQIAAAQIECBAgQIAAAQIECBAgQIAAAQIECBAgQIAAAQIECBAgQIAAAQIECBAgQIAAAQIECBAgQIAAAQIECBAgQIAAAQIECBAgQIAAAQIECBAgQIAAAQIECBAgQIAAAQIECBAgQIAAAQIECBAgQIAAAQIECBAgQIAAAQIECBAgQIAAAQIECBAgQIAAAQIECBAgQIAAAQIECBAgQIAAAQIECBAgQIAAAQIECBAgQIAAAQIECBAgQIAAAQIECBAgQIAAAQIECBAgQIAAAQIECBAgQIAAAQIECBAgQIAAAQIECBAgQIAAAQIECBAgQIAAAQIECBAgQIAAAQIECBAgQIAAAQIECBAgQIAAAQIECBAgQIAAAQIECBAgQIAAAQIECBAgQIAAAQIECBAgQIAAAQIECBAgQIAAAQIECBAgQIAAAQIECBAgQIAAAQIECBAgQIAAAQIECBAgQIAAAQIECBAgQIAAAQIECBAgQIAAAQIECBAgQIAAAQIECBAgQIAAAQIECBAgQIAAAQIECBAgQIAAAQIECBAgQIAAAQIECBAgQIAAAQIECBAgQIAAAQIECBAgQIAAAQIECBAgQIAAAQIECBAgQIAAAQIECBAgQIAAAQIECBAgQIAAAQIECBAgQIAAAQIECBAgQIAAAQIECBAgQIAAAQIECBAgQIAAAQIECBAgQIAAAQIECBAgQIAAAQIECBAgQIAAAQIECBAgQIAAAQIECBAgQIAAAQIECBAgQIAAAQIECBAgQIAAAQIECBAgQIAAAQIECBAgQIAAAQIECBAgQIAAAQIECBAgQIAAAQIECBAgQIAAAQIECBAgQIAAAQIECBAgQIAAAQIECBAgQIAAAQIECBAgQIAAAQIECBAgQIAAAQIECBAgQIAAAQIECBAgQIAAAQIECBAgQIAAAQIECBAgQIAAAQIECBAgQIAAAQIECBAgQIAAAQIECBAgQIAAAQIECBAgQIAAAQIECBAgQIAAAQIECBAgQIAAAQIECBAgQIAAAQIECBAgQIAAAQIECBAgQIAAAQIECBAgQIAAAQIECBAgQIAAAQIECBAgQIAAAQIECBAgQIAAAQIECBAgQIAAAQIECBAgQIAAAQIECBAgQIAAAQIECBAgQIAAAQIECBAgQIAAAQIECBAgQIAAAQIECBAgQIAAAQIECBAgQIAAAQIECBAgQIAAAQIECBAgQIAAAQIECBAgQIAAAQIECBAgQIAAAQIECBAgQIAAAQIECBAgQIAAAQIECBAgQIAAAQIECBAgQIAAAQIECBAgQIAAAQIECBAgQIAAAQIECBAgQIAAAQIECBAgQIAAAQIECBAgQIAAAQIECBAgQIAAAQIECBAgQIAAAQIECBAgQIAAAQIECBAgQIAAAQIECBAgQIAAAQIECBAgQIAAAQIECBAgQIAAAQIECBAgQIAAAQIECBAgQIAAAQIECBAgQIAAAQIECBAgQIAAAQIECBAgQIAAAQIECBAgQIAAAQIECBAgQIAAAQIECBAgQIAAAQIECBAgQIAAAQIECBAgQIAAAQIEJgm8TDrn95h939+2bXu/Fs7z/DiO4/P3Pxt+MK98O9Van/VZn9cV8P31/V23vfHm+qzPsRXrruizPq/b3nhzfdbn2Ip1V/RZn9dtb7y5PutzbMW6K/qsz+u2N968us+v8Uq5K4+Xg7f7KbefF4W5J9bubt5a/+zT5ZstXLu/fGv9s0+Xb7Zw7f7yrfXPPl2+2cK1+8u31j/7dPlmC9fuL99a/+zT5ZstXLu/fGv9s0+Xb7Zw7f7yrfXPPl2+2cK1+1fnO/0FYS230wkQIECAAAECBAgQIECAAAECBAgQIECAAAECBAg8t8D0F4TXz4reyb+uv8fn1gmYt3W83z+Tq899M/b97ZvtNZl85dtJQJ87pRlnkW806bQi305pxlnkG006rci3U5pxFvlGk04r8u2UZpxFvtGk04p8O6UZZ5FvNLFCgAABAgQIECBAgAABAgQIECBAgAABAgQIECBAgAABAgQIECBAgAABAgQIECBAgAABAgQIECBAgAABAgQIECBAgAABAgQIECBAgAABAgQIECBAgAABAgQIECBAgAABAgQIECBAgAABAgQIECBAgAABAgQIECBAgAABAgQIECBAgAABAgQIECBAgAABAgQIECBAgAABAgQIECBAgAABAgQIECBAgAABAgQIECBAgAABAgQIECBAgAABAgQIECBAgAABAgQIECBAgAABAgQIECBAgAABAgQIECBAgAABAgQIECBAgAABAgQIECBAgAABAgQIECBAgAABAgQIECBAgAABAgQIECBAgAABAgQIECBAgAABAgQIECBAgAABAgQIECBAgAABAgQIECBAgAABAgQIECBAgAABAgQIECBAgAABAgQIECBAgAABAgQIECBAgAABAgQIECBAgAABAgQIECBAgAABAgQIECBAgAABAgQIECBAgAABAgQIECBAgAABAgQIECBAgAABAgQIECBAgAABAgQIECBAgAABAgQIECBAgAABAgQIECBAgAABAgQIECBAgAABAgQIECBAgAABAgQIECBAgAABAgQIECBAgAABAgQIECBAgAABAgQIECBAgAABAgQIECBAgAABAgQIECBAgAABAgQIECBAgAABAgQIECBAgAABAgQIECBAgAABAgQIECBAgAABAgQIECBAgAABAgQIECBAgAABAgQIECBAgAABAgQIECBAgAABAgQIECBAgAABAgQIECBAgAABAgQIECBAgAABAgQIECBAgAABAgQIECBAgAABAgQIECBAgAABAgQIECBAgAABAgQIECBAgAABAgQIECBAgAABAgQIECBAgAABAgQIECBAgAABAgQIECBAgAABAgQIECBAgAABAgQIECBAgAABAgQIECBAgAABAgQIECBAgAABAgQIECBAgAABAgQIECBAgAABAgQIECBAgAABAgQIECBAgAABAgQIECBAgAABAgQIECBAgAABAgQIECBAgAABAgQIECBAgAABAgQIECBAgAABAgQIECBAgAABAgQIECBAgAABAgQIECBAgAABAgQIECBAgAABAgQIECBAgAABAgQIECBAgAABAgQIECBAgAABAgQIECBAgAABAgQIECBAgAABAgQIECBAgAABAgQIECBAgAABAgQIECBAgAABAgQIECBAgAABAgQIECBAgAABAgQIECBAgAABAgQIECBAgAABAgQIECBAgAABAgQIECBAgAABAgQIECBAgAABAgQIECBAgAABAgQIECBAgAABAgQIECBAgAABAgQIECBAgAABAgQIECBAgAABAgQIECBAgAABAgQIECBAgAABAgQIECBAgAABAgQIECBAgAABAgQIECBAgAABAgQIECBAgAABAgQIECBAgAABAgQIECBAgAABAgQIECBAgAABAgQIECBAgAABAgQIECBAgAABAgQIECBAgAABAgQIECBAgAABAgQIECBAgAABAgQIECBAgAABAgQIECBAgAABAgQIECBAgAABAgQIECBAgAABAgQIECBAgAABAgQIECBAgAABAgQIECBAgAABAgQIECBAgAABAgQIECBAgAABAgQIECBAgAABAgQIECBAgAABAgQIECBAgAABAgQIECBAgAABAgQIECBAgAABAgQIECBAgAABAgQIECBAgAABAgQIECBAgAABAgQIECBAgAABAgQIECBAgAABAgQIECBAgAABAgQIECBAgAABAgQIECBAgAABAgQIECBAgAABAgQIECBAgAABAgQIECBAgAABAgQIECBAgAABAgQIECBAgAABAgQIECBAgAABAgQIECBAgAABAgQIECBAgAABAgQIECBAgAABAgQIECBAgAABAgQIECBAgAABAgQIECBAgAABAgQIECBAgAABAgQIECBAgAABAgQIECBAgAABAgQIECBAgAABAgQIECBAgAABAgQIECBAgAABAgQIECBAgAABAgQIECBAgAABAgQIECBAgAABAgQIECBAgAABAgQIECBAgAABAgQIECBAgAABAgQIECBAgAABAgQIECBAgAABAgQIECBAgAABAgQIECBAgAABAgQIECBAgAABAgQIECBAgAABAgQIECBAgAABAgQIECBAgAABAgQIECBAgAABAgQIECBAgAABAgQIECBAgAABAgQIECBAgAABAgQIECBAgAABAgQIECBAgAABAgQIECBAgAABAgQIECBAgAABAgQIECBAgAABAgQIECBAgAABAgQIECBAgAABAgQIECBAgAABAgQIECBAgAABAgQIECBAgAABAgQIECBAgECuwEvu9nH3fd/ftm17v/7nPM+P4zg+41N9Vswr3z5t/vdPn/VZn9cV8P31/V23vfHm+qzPsRXrruizPq/b3nhzfdbn2Ip1V/RZn9dtb7y5PutzbMW6K/qsz+u2N968us+v8Uq5K4+Xg7f7KbefF4W5J9bubt5a/+zT5ZstXLu/fGv9s0+Xb7Zw7f7yrfXPPl2+2cK1+8u31j/7dPlmC9fuL99a/+zT5ZstXLu/fGv9s0+Xb7Zw7f7yrfXPPl2+2cK1+1fnO/0FYS230wkQIECAAAECBAgQIECAAAECBAgQIECAAAECBAg8t8D0F4TXz4reyb+uv8fn1gmYt3W83z+Tq899M/b97ZvtNZl85dtJQJ87pRlnkW806bQi305pxlnkG006rci3U5pxFvlGk04r8u2UZpxFvtGk04p8O6UZZ5FvNLFCgAABAgQIECBAgAABAgQIECBAgAABAgQIECBAgAABAgQIECBAgAABAgQIECBAgAABAgQIECBAgAABAgQIECBAgAABAgQIECBAgAABAgQIECBAgAABAgQIECBAgAABAgQIECBAgAABAgQIECBAgAABAgQIECBAgAABAgQIECBAgAABAgQIECBAgAABAgQIECBAgAABAgQIECBAgAABAgQIECBAgAABAgQIECBAgAABAgQIECBAgAABAgQIECBAgAABAgQIECBAgAABAgQIECBAgAABAgQIECBAgAABAgQIECBAgAABAgQIECBAgAABAgQIECBAgAABAgQIECBAgAABAgQIECBAgAABAgQIECBAgAABAgQIECBAgAABAgQIECBAgAABAgQIECBAgAABAgQIECBAgAABAgQIECBAgAABAgQIECBAgAABAgQIECBAgAABAgQIECBAgAABAgQIECBAgAABAgQIECBAgAABAgQIECBAgAABAgQIECBAgAABAgQIECBAgAABAgQIECBAgAABAgQIECBAgAABAgQIECBAgAABAgQIECBAgAABAgQIECBAgAABAgQIECBAgAABAgQIECBAgAABAgQIECBAgAABAgQIECBAgAABAgQIECBAgAABAgQIECBAgAABAgQIECBAgAABAgQIECBAgAABAgQIECBAgAABAgQIECBAgAABAgQIECBAgAABAgQIECBAgAABAgQIECBAgAABAgQIECBAgAABAgQIECBAgAABAgQIECBAgAABAgQIECBAgAABAgQIECBAgAABAgQIECBAgAABAgQIECBAgAABAgQIECBAgAABAgQIECBAgAABAgQIECBAgAABAgQIECBAgAABAgQIECBAgAABAgQIECBAgAABAgQIECBAgAABAgQIECBAgAABAgQIECBAgAABAgQIECBAgAABAgQIECBAgAABAgQIECBAgAABAgQIECBAgAABAgQIECBAgAABAgQIECBAgAABAgQIECBAgAABAgQIECBAgAABAgQIECBAgAABAgQIECBAgAABAgQIECBAgAABAgQIECBAgAABAgQIECBAgAABAgQIECBAgAABAgQIECBAgAABAgQIECBAgAABAgQIECBAgAABAgQIECBAgAABAgQIECBAgAABAgQIECBAgAABAr0F/gOSpZRIMJlwXgAAAABJRU5ErkJggg==;" parent="1" vertex="1">
                    <mxGeometry x="79" y="1047.5" width="360" height="120" as="geometry"/>
                </mxCell>
                <mxCell id="4hbtPa9VFHNtGfl8PcOY-165" value="AWS Cloud" style="points=[[0,0],[0.25,0],[0.5,0],[0.75,0],[1,0],[1,0.25],[1,0.5],[1,0.75],[1,1],[0.75,1],[0.5,1],[0.25,1],[0,1],[0,0.75],[0,0.5],[0,0.25]];outlineConnect=0;gradientColor=none;html=1;whiteSpace=wrap;fontSize=12;fontStyle=0;shape=mxgraph.aws4.group;grIcon=mxgraph.aws4.group_aws_cloud_alt;strokeColor=#232F3E;fillColor=none;verticalAlign=top;align=left;spacingLeft=30;fontColor=#232F3E;dashed=0;" parent="1" vertex="1">
                    <mxGeometry x="159" y="680" width="560" height="320" as="geometry"/>
                </mxCell>
                <mxCell id="4hbtPa9VFHNtGfl8PcOY-173" value="" style="fillColor=none;strokeColor=#5A6C86;dashed=1;verticalAlign=top;fontStyle=0;fontColor=#5A6C86;" parent="1" vertex="1">
                    <mxGeometry x="199" y="710" width="480" height="130" as="geometry"/>
                </mxCell>
                <mxCell id="4hbtPa9VFHNtGfl8PcOY-164" value="" style="dashed=0;outlineConnect=0;html=1;align=center;labelPosition=center;verticalLabelPosition=bottom;verticalAlign=top;shape=mxgraph.weblogos.github" parent="1" vertex="1">
                    <mxGeometry x="562" y="1070" width="75" height="75" as="geometry"/>
                </mxCell>
                <mxCell id="4hbtPa9VFHNtGfl8PcOY-166" value="" style="outlineConnect=0;fontColor=#232F3E;gradientColor=#4D72F3;gradientDirection=north;fillColor=#3334B9;strokeColor=#ffffff;dashed=0;verticalLabelPosition=bottom;verticalAlign=top;align=center;html=1;fontSize=12;fontStyle=0;aspect=fixed;shape=mxgraph.aws4.resourceIcon;resIcon=mxgraph.aws4.dynamodb;" parent="1" vertex="1">
                    <mxGeometry x="220" y="880" width="78" height="78" as="geometry"/>
                </mxCell>
                <mxCell id="4hbtPa9VFHNtGfl8PcOY-167" value="" style="outlineConnect=0;fontColor=#232F3E;gradientColor=#60A337;gradientDirection=north;fillColor=#277116;strokeColor=#ffffff;dashed=0;verticalLabelPosition=bottom;verticalAlign=top;align=center;html=1;fontSize=12;fontStyle=0;aspect=fixed;shape=mxgraph.aws4.resourceIcon;resIcon=mxgraph.aws4.s3;" parent="1" vertex="1">
                    <mxGeometry x="562" y="880" width="78" height="78" as="geometry"/>
                </mxCell>
                <mxCell id="4hbtPa9VFHNtGfl8PcOY-168" value="" style="outlineConnect=0;fontColor=#232F3E;gradientColor=#F78E04;gradientDirection=north;fillColor=#D05C17;strokeColor=#ffffff;dashed=0;verticalLabelPosition=bottom;verticalAlign=top;align=center;html=1;fontSize=12;fontStyle=0;aspect=fixed;shape=mxgraph.aws4.resourceIcon;resIcon=mxgraph.aws4.lambda;" parent="1" vertex="1">
                    <mxGeometry x="401" y="880" width="78" height="78" as="geometry"/>
                </mxCell>
                <mxCell id="4hbtPa9VFHNtGfl8PcOY-169" value="" style="outlineConnect=0;fontColor=#232F3E;gradientColor=#60A337;gradientDirection=north;fillColor=#277116;strokeColor=#ffffff;dashed=0;verticalLabelPosition=bottom;verticalAlign=top;align=center;html=1;fontSize=12;fontStyle=0;aspect=fixed;shape=mxgraph.aws4.resourceIcon;resIcon=mxgraph.aws4.s3;" parent="1" vertex="1">
                    <mxGeometry x="562" y="736" width="78" height="78" as="geometry"/>
                </mxCell>
                <mxCell id="4hbtPa9VFHNtGfl8PcOY-170" value="" style="outlineConnect=0;fontColor=#232F3E;gradientColor=#945DF2;gradientDirection=north;fillColor=#5A30B5;strokeColor=#ffffff;dashed=0;verticalLabelPosition=bottom;verticalAlign=top;align=center;html=1;fontSize=12;fontStyle=0;aspect=fixed;shape=mxgraph.aws4.resourceIcon;resIcon=mxgraph.aws4.route_53;" parent="1" vertex="1">
                    <mxGeometry x="220" y="736" width="78" height="78" as="geometry"/>
                </mxCell>
                <mxCell id="4hbtPa9VFHNtGfl8PcOY-171" value="" style="outlineConnect=0;fontColor=#232F3E;gradientColor=#945DF2;gradientDirection=north;fillColor=#5A30B5;strokeColor=#ffffff;dashed=0;verticalLabelPosition=bottom;verticalAlign=top;align=center;html=1;fontSize=12;fontStyle=0;aspect=fixed;shape=mxgraph.aws4.resourceIcon;resIcon=mxgraph.aws4.cloudfront;" parent="1" vertex="1">
                    <mxGeometry x="401" y="736" width="78" height="78" as="geometry"/>
                </mxCell>
                <mxCell id="4hbtPa9VFHNtGfl8PcOY-175" style="edgeStyle=orthogonalEdgeStyle;rounded=0;orthogonalLoop=1;jettySize=auto;html=1;exitX=0.5;exitY=1;exitDx=0;exitDy=0;" parent="1" source="4hbtPa9VFHNtGfl8PcOY-173" target="4hbtPa9VFHNtGfl8PcOY-173" edge="1">
                    <mxGeometry relative="1" as="geometry"/>
                </mxCell>
                <mxCell id="4hbtPa9VFHNtGfl8PcOY-176" value="" style="outlineConnect=0;fontColor=#232F3E;gradientColor=none;fillColor=#232F3E;strokeColor=none;dashed=0;verticalLabelPosition=bottom;verticalAlign=top;align=center;html=1;fontSize=12;fontStyle=0;aspect=fixed;pointerEvents=1;shape=mxgraph.aws4.internet_alt2;" parent="1" vertex="1">
                    <mxGeometry x="121" y="736" width="78" height="78" as="geometry"/>
                </mxCell>
                <mxCell id="4hbtPa9VFHNtGfl8PcOY-177" value="" style="outlineConnect=0;fontColor=#232F3E;gradientColor=none;fillColor=#232F3E;strokeColor=none;dashed=0;verticalLabelPosition=bottom;verticalAlign=top;align=center;html=1;fontSize=12;fontStyle=0;aspect=fixed;pointerEvents=1;shape=mxgraph.aws4.user;" parent="1" vertex="1">
                    <mxGeometry x="10" y="736" width="78" height="78" as="geometry"/>
                </mxCell>
                <mxCell id="4hbtPa9VFHNtGfl8PcOY-181" value="" style="edgeStyle=orthogonalEdgeStyle;html=1;endArrow=block;elbow=vertical;startArrow=block;startFill=1;endFill=1;strokeColor=#545B64;rounded=0;" parent="1" source="4hbtPa9VFHNtGfl8PcOY-177" target="4hbtPa9VFHNtGfl8PcOY-170" edge="1">
                    <mxGeometry width="100" relative="1" as="geometry">
                        <mxPoint x="100" y="780" as="sourcePoint"/>
                        <mxPoint x="200" y="780" as="targetPoint"/>
                    </mxGeometry>
                </mxCell>
                <mxCell id="4hbtPa9VFHNtGfl8PcOY-184" value="" style="edgeStyle=orthogonalEdgeStyle;html=1;endArrow=block;elbow=vertical;startArrow=none;endFill=1;strokeColor=#d79b00;rounded=0;fillColor=#ffe6cc;" parent="1" target="4hbtPa9VFHNtGfl8PcOY-169" edge="1">
                    <mxGeometry width="100" relative="1" as="geometry">
                        <mxPoint x="720" y="1090" as="sourcePoint"/>
                        <mxPoint x="760" y="770" as="targetPoint"/>
                        <Array as="points">
                            <mxPoint x="760" y="1090"/>
                            <mxPoint x="760" y="775"/>
                        </Array>
                    </mxGeometry>
                </mxCell>
                <mxCell id="4hbtPa9VFHNtGfl8PcOY-188" value="" style="edgeStyle=orthogonalEdgeStyle;html=1;endArrow=block;elbow=vertical;startArrow=none;endFill=1;strokeColor=#545B64;rounded=0;" parent="1" source="4hbtPa9VFHNtGfl8PcOY-168" target="4hbtPa9VFHNtGfl8PcOY-168" edge="1">
                    <mxGeometry width="100" relative="1" as="geometry">
                        <mxPoint x="490" y="919" as="sourcePoint"/>
                        <mxPoint x="490" y="950" as="targetPoint"/>
                        <Array as="points">
                            <mxPoint x="560" y="919"/>
                            <mxPoint x="560" y="950"/>
                        </Array>
                    </mxGeometry>
                </mxCell>
                <mxCell id="4hbtPa9VFHNtGfl8PcOY-191" value="" style="edgeStyle=orthogonalEdgeStyle;html=1;endArrow=none;elbow=vertical;startArrow=block;startFill=1;strokeColor=#545B64;rounded=0;entryX=0.5;entryY=1;entryDx=0;entryDy=0;" parent="1" target="4hbtPa9VFHNtGfl8PcOY-231" edge="1">
                    <mxGeometry width="100" relative="1" as="geometry">
                        <mxPoint x="259" y="1080" as="sourcePoint"/>
                        <mxPoint x="280" y="1010" as="targetPoint"/>
                        <Array as="points">
                            <mxPoint x="259" y="1080"/>
                        </Array>
                    </mxGeometry>
                </mxCell>
                <mxCell id="4hbtPa9VFHNtGfl8PcOY-193" value="" style="edgeStyle=orthogonalEdgeStyle;html=1;endArrow=none;elbow=vertical;startArrow=block;startFill=1;strokeColor=#545B64;rounded=0;" parent="1" edge="1">
                    <mxGeometry width="100" relative="1" as="geometry">
                        <mxPoint x="480" y="890" as="sourcePoint"/>
                        <mxPoint x="560" y="890" as="targetPoint"/>
                    </mxGeometry>
                </mxCell>
                <mxCell id="4hbtPa9VFHNtGfl8PcOY-195" value="feature/push" style="text;html=1;fillColor=#d5e8d4;align=center;verticalAlign=middle;whiteSpace=wrap;rounded=0;strokeColor=#82b366;fontSize=12;fontColor=#000000;" parent="1" vertex="1">
                    <mxGeometry x="380" y="1120" width="100" height="20" as="geometry"/>
                </mxCell>
                <mxCell id="4hbtPa9VFHNtGfl8PcOY-199" value="" style="endArrow=none;html=1;entryX=0;entryY=0.5;entryDx=0;entryDy=0;labelBorderColor=none;fillColor=#d5e8d4;strokeColor=#82b366;exitX=1;exitY=0.25;exitDx=0;exitDy=0;" parent="1" source="4hbtPa9VFHNtGfl8PcOY-228" target="4hbtPa9VFHNtGfl8PcOY-195" edge="1">
                    <mxGeometry width="50" height="50" relative="1" as="geometry">
                        <mxPoint x="340" y="1130" as="sourcePoint"/>
                        <mxPoint x="390" y="1070" as="targetPoint"/>
                    </mxGeometry>
                </mxCell>
                <mxCell id="4hbtPa9VFHNtGfl8PcOY-200" value="" style="endArrow=classic;html=1;exitX=1;exitY=0.5;exitDx=0;exitDy=0;fillColor=#d5e8d4;strokeColor=#82b366;" parent="1" source="4hbtPa9VFHNtGfl8PcOY-195" edge="1">
                    <mxGeometry width="50" height="50" relative="1" as="geometry">
                        <mxPoint x="460" y="1110" as="sourcePoint"/>
                        <mxPoint x="560" y="1130" as="targetPoint"/>
                    </mxGeometry>
                </mxCell>
                <mxCell id="4hbtPa9VFHNtGfl8PcOY-202" value="" style="endArrow=classic;html=1;fontSize=12;fillColor=#d5e8d4;strokeColor=#82b366;entryX=0.5;entryY=1;entryDx=0;entryDy=0;exitX=0.475;exitY=0.024;exitDx=0;exitDy=0;exitPerimeter=0;" parent="1" source="4hbtPa9VFHNtGfl8PcOY-214" target="4hbtPa9VFHNtGfl8PcOY-219" edge="1">
                    <mxGeometry width="50" height="50" relative="1" as="geometry">
                        <mxPoint x="599" y="990" as="sourcePoint"/>
                        <mxPoint x="601" y="980" as="targetPoint"/>
                    </mxGeometry>
                </mxCell>
                <mxCell id="4hbtPa9VFHNtGfl8PcOY-203" value="PR/merge(close)" style="text;html=1;fillColor=#ffe6cc;align=center;verticalAlign=middle;whiteSpace=wrap;rounded=0;fontSize=12;strokeColor=#d79b00;fontColor=#000000;" parent="1" vertex="1">
                    <mxGeometry x="370" y="1080" width="120" height="20" as="geometry"/>
                </mxCell>
                <mxCell id="4hbtPa9VFHNtGfl8PcOY-205" value="" style="endArrow=none;html=1;fontSize=12;fontColor=#000000;entryX=0;entryY=0.5;entryDx=0;entryDy=0;fillColor=#ffe6cc;strokeColor=#d79b00;exitX=0.642;exitY=0.354;exitDx=0;exitDy=0;exitPerimeter=0;" parent="1" source="4hbtPa9VFHNtGfl8PcOY-229" target="4hbtPa9VFHNtGfl8PcOY-203" edge="1">
                    <mxGeometry width="50" height="50" relative="1" as="geometry">
                        <mxPoint x="340" y="1090" as="sourcePoint"/>
                        <mxPoint x="360" y="1040" as="targetPoint"/>
                    </mxGeometry>
                </mxCell>
                <mxCell id="4hbtPa9VFHNtGfl8PcOY-206" value="" style="endArrow=classic;html=1;fontSize=12;fontColor=#000000;exitX=1;exitY=0.5;exitDx=0;exitDy=0;fillColor=#ffe6cc;strokeColor=#d79b00;" parent="1" source="4hbtPa9VFHNtGfl8PcOY-203" edge="1">
                    <mxGeometry width="50" height="50" relative="1" as="geometry">
                        <mxPoint x="490" y="1100" as="sourcePoint"/>
                        <mxPoint x="560" y="1090" as="targetPoint"/>
                    </mxGeometry>
                </mxCell>
                <mxCell id="4hbtPa9VFHNtGfl8PcOY-211" value="" style="shape=image;verticalLabelPosition=bottom;labelBackgroundColor=#ffffff;verticalAlign=top;aspect=fixed;imageAspect=0;image=data:image/png,iVBORw0KGgoAAAANSUhEUgAAAMgAAADICAYAAACtWK6eAAAnO0lEQVR4nOyde2wb173nj1yie/4QuqPCuBnsFST21N24aMqk67QxYHl52ExSp3WbtLERX5tFlNuUcXtTOMXm2srednmIJltVm6DOxt04vO7GQug0XicbZ6+zVeoJeLjSRR3UQl3GbVysMyW1vthJ63s1CYSLg65QLUY8tGWFnHNmOEMOqfkAgRFxHoff4W/O6/eIgQ4DUbIfInwjAOAmRSMbAQBx/l8//3c1lwEAFgDgEgDgoqWTiwCA8wCANyw9d7kDXyGih+nrxE0VLbsFIrwNIqwBAG4GAPhlqBUAALV0MsUM+iozSgs+XTdijdI2A1G07CaIcBoivAMAMNiGWzIAwJSlkwIz6CvMKC224Z4RPUagBgJRMgYRvkfRyEO8p+gUJjPoYUsnzzCjZHawHRFdRiAGYhuGopE9EOHvAAA2BHEPjzBuKD+IDCVCBt8NRNGyn1M0chAAsNHva/uIxQz6uKWTJ5hRYp1uTER48c1AIEqqaoY+BQDY4dc128AFSyd7LT1X6nRDIsLJB/y4iJop3q1o5GcAgH/jx/XayHqI8ChEeP3ifKW4OF+NJvIR19BSDwJREioa+SFEeK9P7bHstzp/s1f4nsfKpdoYAGBQ0YjK90hu8HFF7JyZxzuYUXrbp+tF9ACeDYQPqf6uxdUp+8d/ytLJFN/ou+D2AoqWXQ8A2AIR1iDC21pcFLDnJrvMfOq1Fq4R0UN4MhCIkterGap7fHvbw5iTfH/iNb8nyYqWvZHvt4zaQygv7WMGfdDMp57xs10R3YlrA1EzRfttfdLDj295iZUZ9AlLz11ye1+38OHfHojwmJdehRn0ITOfejKY1kV0C64MhBvHFPeTkmWR7z081om9B74ncy9E+FH7K7g5NzKSCGkD4cOqGZc9xxlLJ/dbeu7X3prnHxAlFUUj34MIP+jmvMhI1jZSy7x8Qj7j4g1s9xr//vKJ0a8vzE6+01oT/WFxvsoWZid/CgCg3EnyQzLnxQbi2yDC5xdmJ98KvpURYUNoIPZYXs3Q0y52xk1LJ7dfPnHf8cX56p9ab6K/MKNUZQZ9rn/TaEJ2bhIbiH8eAPA/mVEKhbFHtA+hgazfefSp2ED8S5LXO2fm8daF2cnftt604Ficr/4zM+jx2ED8w7GB+GckTvkgRHgbM+ik3RO1oYkRIcFxDqJmindDhF+UvNaMmcd3dFsMhpop/juI8OOSh79YGevbGXCTIkLEumYfQJQchAgfkbxOVxqHjZlPPWFPxCUP36FminsCblJEiGg6xBo8UPmxpG+VPay6tRuNo87C7OQbEGEYG4iPiI6NDcT/LTPos/YwrT2ti+gkDYdY3GV9SuJ808zjT7nd34AoqSoa+RpEeDuf/Cv2tfiy8Iv2/KATEYDx8aWfAAB2SRx6pDLW9/U2NCmiw7yvB4EoGVu/8+j/kNjvWLR0crvbCbmaKe5TNHIyNhDfxl1VIP+o3zYWiPBX+jeN7gYA/IYZpd+5+jYtwgz6Wv+m0S8BAP5McKjds56MVrV6n/fNQRSN7JFZ0mUG/Y6l595wczM1U/whRPigxE78BkUjenx86VmIkl78qTxhDxMtnezi8eyOKBqRndhHdDHX9CDcLeO/AQA+LDjvzOUTo193s8/BV4v+g8v23dS/afQvIcK/X5id/JXLcz3BjNIfIMIsNhC/XXAoAgBMMaP0D+1oV0RnuKYHgQjfI7F5Zg+t7nczR7DnHNwXygvrIcJH4+NLRUXLtiW+3dLJkzzXliOKRsba0Z6IznFND6Jm6H8FAPwrpxOYQf/L5RP3Tbq5yfqdRw/EBuKf9dpIThwinIEIg8X5ys+D3KXn1/4Nd5l3wjbY55hRsoJqS0RnudKDKFp2k0TwE7N08pjbm/DVKj+Adk+kZuibipa9xadrNoTHqZ8SHBaDCD8QZDsiOssVA4EIp0UH1+I5PLms3+DhHCc2Kho5o2aKT0OUVHy+9hUsnRDRMTK6RXQvKw1ElI1kkRn0CY/3EaUWPcsjDV0BEd6rZuhbaqZ4t8d2OWLpuVkAwIzgsEFFy24J4v4RnWfZQPgDFoXPngwqEtDSySFLJ/bw7oyH01WI8Ivx8aW/gyjZKNl1y20THSPxconoUpYNhCc7cMTSSSHIhlh67ldmHm/lflFe3Fa223MTNVPcB1HSt6z1zKCviNrj4xwrImTUDUQTHLfADBp4pg9mlBbNfOpJM48/bvdYHi7RDxE+qGboz/migx9tYhJt2aBoWd97r4jOsw6iZL/E6tWpdqboZEbpUmWs78vMoDt4HRC33Mwn8f+Jf7+WsHQiY6zRPKQHWceL1zgOSXjeqrZj5lMvmXn8SWbQQx4m8TGI8MN82PWFVtrBDPq66BiIcCez10cEhD3EukniOFc+V37CjJJl5lPfsnQyIrO73YA4RPhUfHzpBERJV1lNVrYBAHDO6RiIsIyOEV3GOl72zAnLS8ZDv7H03Bs113o6JuNM2IAdvDfxOhQ6K/g8zNnsIzyyrkkdwJV03Djq8En8D/gkXvdwifUQ4SlFy37C7YmWTkS9l+rHfCciXHSVgdRhRqlSGeu7jRk0zRNcu6Ff0chRD0vBF0UHQIQ9DeEiwss6UWwGz7IeSsx86piZxx8DABx1eerNEOE7XZ5TlTimHbUXI9qITA8S6tLK9gS6MtZ3n6UT7Ka3UzQiE1q7EpnNy3/h8poRIadpVpMVdEUyBkvPlfgk/lHJJWFhgoaVMIPK7MdEQ6weQ8ZAugZmlJiZT33X0skNEkvCLhNZR2Wk1yI9ZSCgFr3YzwOdRMuu0Q8+QojMSo5vjn9Bo2aKX4AIH5KYVwG3q3OKlpXpcbpiOBohT4xPwp0yh4R+ZQai5CCvsHuX7DnMoG73UWT2OP7R5TUjQs46XjizKbxgZiiBKBlTM8V9aoa+5cY4ePCXbFrVOjIviig2vceIcW9Zp2whoXTjVrTsLYq2HMzk2kmwVvHKdVGfj0ocE3hpuYj2EuM7xNjhGL/jyVtiRaWovR7nRzOWTv7a/X2xaNK/YOm5UO8ZRbhnnaUTkQvFIC+13HHUTPEeezjFy6h5MY4jPAu9a2dHCW9doStKRPcRk3Qh3wIAeKUN7WkIRMm4mqFPAwCEocFNuGjpZK+l54RxHU3ub+u0WXCYF1f8iJCzTibWQyIkNxD4JPxv+CTci3EwZtBHzTz+pFfjqLUD3yLhsyZyh4/oQtbxcbOjQ6JMUge/UbTsFjVD3+QpS6GHS1BLJzeZ+dR3Ww0Xlvz+pVbuERFO6jvpoj2BDYqWvbEN7bF7jfXx8aVnFY3MeAxCuswMmq6M9aUsPedLrUSIsMix0bL0nGPEYUR3smwglk6Em2btyCCoZor38uGUKCduM+xJ+MfMfOqYX23iKU5FSbM7ErMfETzLBsIM+qoojBUiPApR0stQRwhEeGN8fGkaInxUonBPI85bOhmpjPV93e9E0opG9oqOsXQiyuEb0aVwA1muLyh6C67nxXV8ByI85tb9nGNPwsfMPP6Upef+3v92LSd5EA2vGE8uF9GDXPHmlcmcaP+QPWYtDGKHecrM44+b+dQPgnJFVzRyQGKB4GQ3FzCNcOaKgfC3oChz+wZFI/d6uA/1cE4zLjGD7qiM9d3BjFJg4cC86I/M8MqtT1dEF3GlgM7ifPVPEOH+2EDcye0ExAbin2EG/fHifNXN0uk/+zDJX2QG/c+XT4zeY+m5X7Z4LSGDBypPSfh5nTfzKdduKxHdwzUBU5ZOnpHIOaUqGvmem5tYeu41j2l66py1dLLZzKe+3Y5qToqWTcqspDGDRoU8e5xrSrAtzlcXIMLrYwNxR7cKuxexh03MKMlk+liGGfR0/6bRtGRcRR3LnoRfPjH6wMLsZFuKZUKU7F+/8+jPeO12Jy7a7QqyFFxE5+lb/Qd77M33IkQ/kEu1JAklaQ9W7lP1smS60xfNPLZ7jLa6kMfHl56V7D1GzXzKVa3GiO7jA6v/wHuRmETRzQ/1bxpNMIMel32LLs5X7R7hx7GB+D/FBuI32NdocNiMpZOMmU99f3G++p70N/EBNVP8WmwgLlOq+uylH3zkr9rQpIgO874eBNTe9FDN0F/KuHowgx4y86lvebm5omXtnuR6vpRq90Szlp7zUgOxZdRMMQkR1mXc6O35kKXnOpbQO6J9NDQQwCeqikaklmeZQR828ymv9Qs7jqJlN/HvKpwftfJCiOg+3jfEqmNPwPmE/TOii8QG4rdDhK2F2cmue6ty4zgFAPiwxOH2xHzn4nz1j21oWkQIaGogYHnOUCn2bxrdLpNkLTYQ3wYRhguzk57jLtqNPazq3zT6M0njWLR0sm1hdlJ65S6i+2k6xKoDUfKjaoaelVjVqvOCmcdfD7v7hT0hhwgflg3dZQZ90MynfhR8yyLChGMPAmorT/MQ4XOxgfguyUyMN/RvGv0SAOB/MaP0B3+a6R8QJfsHD1Se4atVUpklmUGPmPnUd4NvXUTYEBqIzcLs5NsQ4d/HBuKy5Y7/DCL8lxBhtjhf+UVYNtMULZvkm4CO7jSrmLp8YnRPWL5DRHuRMhBQM5JZeyJuzzUkT4nZk/f+TaNfAQD8xs2uu99AlFQHD1SegggfdDFUtJkx8/jOdlb4jQgXwjnIamqF+pd/aG45aenkUUvPzXo41xO2YSgaOcC9ct0Ge83wFEGhnktFBItrAwGtGQngO+WHmEFfCerNzLMu7uXBTl6iIKfMPN4ZGUeEJwMBNSO5m4fIei1cucB7lZPMoK+34qULUTIGEb4FIryNJ1gQxZA3xZ6QWzr5RlQPJAK0YiCg9qa+UdHISZ/y957jbu3neZZCe86ywAx6qf5j5SUI+nki6Y9ChDfyjIebWzDUOovMoA9FS7kRK2nJQADPlatm6N8CAHb406SOcNHSya4g5kfcqLdAhDfz/L4beGKK1ckpLvGIzovMoOeZQc8wg76xloZ5YdSqZQOpo2aKe/i8JBR5fGVhBj1k6eQRP8VVtKzds9l63NVi8m/G52wvMIO+1I5gsXYTdq18MxDAk76pGfp9AMD9fl43IOzh3IN+euUqWvZORSMPe8zQIsL+ARQsnRz0ULohdHSLVr4aSB0+N3kcANCRnL4CLtby9foX7KRo2c8pGhmXDATzA/vh5yw913UZ5btNq0AMpA5fbh0DAGwPQa1De6z6uKWTY36tUPHSb0/z79dulhNzWzoJLO2Rn3SrVoEaSB1Fy8Yhwg/wzCbtrHnI+FLykVayuzdCzRTv4c6Obnbmg+Ccmcc7mFF6u8PtaEo3a9UWA1mJomW3QIR3QIS3t7Jf4YA9OZuydHKKb0b6urIBUTKmaOSHvIhPWFhgBt1l5lOvdrohK+kFrdpuICuxexYAwBY+WfMyJl3geybneX2OUpBZ1iFK9qsZeqKFQj5BssgjO5/sdENAD2nVUQOpI5NJhBmUMIOe56WW7V7iUjtrAvIH/tMWV11s471g6eTCqpos/RDhQb72v1kmQK0ZfLOzo0bSS1p1jYHwEmrPtK9VV6lVuqKnXbrJ29gTQt3SSYEZ9DXZFEl8b+BuPmdzXSOlk0bSa1p1jYHYk+3KWN+X29Ska4iPLz0HAHCTOnWRLy8+1upSrKJlb1U08h2XPzh7CHFXJ+YkvaaVVERdSNgGUbLtqyBqprjP5QOnlk5uqIz13efHPoWl516vjPWl7Imliyz5MYjwCxAlZWq7+0YvatVNBgI9Zpb3jKJlb4QIy+bfXXZ29LP020rMfOq4mcefAgDIFuux5wEveixX4Zpe1aqbDKRenySQKlfvv9fyEuVRyQ3OBWZQLehxvz0ur4z1fZEZ9FHJU25SNPI3QbYJ9LhWXWUgPLN8W1J+Khp5QHLp2bJ0MmLmU22rclur3EsfkjnWfqkoWjaI/aYr9LJW3WYg9pf4DkTJQHfj7bkOLz8tgjGDbrf03K+CbE8j7Dew5NsRui1X4YZe16rrDMR+YakZ+myQY2tFI/tk3CKYQfea+ZTvtRFl4amIZMbZuxQt+4kg2tDrWnWjgdhoikayQVzYnuPIlF4DABTCUP7AzOP7ZFZsFI1IDTPcsBa06lYDWR5q8WVFv697p8TurGXm8bf9vrcX7MkoM+jDEoem/V4mXwtada2BgNoDOui3kSgaEQZ71dxe5AsHuaW2G13cFx9f+ml8fOmt+PjSCUXLbml2vJlPHZcolGq/7e/2s51rQauuNhBw1Uj+1o85CUTJ9RK7sCav5RgI3I/pNA9f3sbdJ3YoGqFqpvhAs/MsnQgnoYpGRDXf3bRzTWjV9QYCakZyv5qhv1C07I0tXudW0Vo+M+iRoPJ5rXDya/TDi9k/BEXLNlzB4/EuFwS3GLHv4U9b14ZWPWEgnJsUjZxVM8WnIUp68vBUNCL04WEGDWSyKekBCwEATYdJzKAF0W0gwrd4b+VV1opWvWQggL859qoZ+rv4+NJzvJyzGxyr+9biTvyPA3fpHt50os0M+pL4Xlj0HWVZE1p1Ok48KOy3R1rRiP3fZe5GfYZ3q29zD9JGOKadYQZtpdZ744a6j51oOjSw9NwFRSOm08oST7TnB2tCq24xEMoMeg4i7GUtf31t86f1CSozlgsJOaJo2Rv4Pc+LAro8PPBLzKCvCI6xXwR3OXy+Iz6+tCR5P8/0iFbxbjEQYOZT31YzRQsiTDrYjKaepzyDy5GVb1ZFI02rbXl44AuWTnaIJr3MoBcgchurFAi9oJXaVXMQM5/KMYNu5yG3naDhW07RshsUjegNhh277Ae7euXIywNnBt0mk+SOGVQ2DiJoekGrwa4yEFAzklfNPP6kC19/37D0XKXR37mbdLPl05GVD97rA3fhxxSKXL69olXXGQiouQxc4r7+biLHgkS0orP84BUtqwb8wLuBrtKqKw2kDo8c+xj39w/cUBQt2ywxt0y2vhFFI7/r9ANvF72iVVcbCKj1JszMp5408/gj9sQMAHBS8iF4odlDn5E8XzYaspUH7ketFj/oBa2srjeQOswoLVp67qXKWN+XzTwesPTlZd3DPL+SXwbTMLDfzOPHeL0KP2jpbahoxHXqm4DoBa3MrlnmdQMzSgvMKB239NxxcLVE2wa+KfTnzXyIeFx1U2qbbLn3pYex50RmHmM1Q2kricx8GiqIHvpZSyeHWrj+MmtEq4vdkheLVsb6Um1ox+8E3a5eGeu7rdmHECWvb+HBt/zAeX2WPzgdwwz6uJlP/bXXe9RZK1r1zBDLJ0R5fR29YZlR+q39dvQwhPBlkgkR/pzoGGbQM63cYwVrQqvIQFZg6aTloCMPD963FRhFIzJJ23xZ6VkrWkUGci2viQ5QNCJM5e/iwfv4wJfT1Ygqep239JxfE+Q1oVVkICuw9NwFXk7BiZtl3OglHrxp5vHNfq3d8x1qUQDTST/uBdaQVpGBrIIZ1HF1BtQElkqxueLBr/ZsvWD/3f7cc0OvaU/2epmcuMygx/y434rr9bxW0SrWKhQtO8h3cUVvmAfNfOpHLq57M98beNvSc0JXcDfEx5eKEvHhM5Wxvq1+3nctaBUZSOP2yKTwX7B0srnTJZnVTHEfT1rgiKWTuyw9J4qPcE2vaxUNsRpg6cvDAtHue7+ikRf9SoLgBTVTTEpmVD8XhHGANaBVZCAN4PljRUH9NhsbxTC0A0XLfgIifEomo7qlL5fiDoRe1yoykCaYefyIZGDWSLsfvJopblE0MuMQV7GSU5aeEy7JtkIvaxUZSBOYUTJl0+bzB/+LoBJEr0TNFO+FCOuSNcctM4+/EXSbelmryEAc4AmXZfcONioaOaNmioHUL4Eoud6eEEOEj8q6gjOD7mVGqS0BZb2qVWQgAsw8/qpEFr46/RDhQ/HxpV94yMnVEIiSUM0U96kZ+r/d1P9jBj3E89C2jV7UKlrmlaAFz9Nl13Jm0JcaZetwQtGyGyDC9hDhfg/3nTLz+IvMKAUVONaUXtMqMhBJeKoaXXKytxoGAJhhBl3O78WT112u54LiOWTtB3s9RPhmiLAmSszmwIyZx3e4/ZH5SS9pFRmIC/iDP9lioE+QdNw46vSKVtEcxAWWnnuD+wvJjrPbScHM41QYjAP0kFaRgbiEO9V92sWKTdDUa45/tRNzDid6QavIQDxgv3kqY31fZgYd7WCWR1BziyA3B11zvBW6XavIQFrAzKcmzTz+OADgaICphhph1Txk8ac7UVbZC92qVWQgLcKMklkZ67vPfjtxn6QgH/5lZlBi5vFHzHzqR2EbUonoRq2iVSyfUbTsIF+Tt7/PBh8uaT9YaunkKN8jCKSkWSfoBq0iAwkQRctuBAB8jpcru0ky66H9kM8DAM5YOqHMoK8HWSU2LIRVq8hA2ghEyX6IcJyn5bxuhZ+QPXl9FwBQaZYVfa0RFq16MrNiWOEZH893uh3dQFi0iibpEREORAYSEeFAZCAREQ5EBhIR4UBkIBERDkQGEhHhQLTM20bCsrbfDQwlkv1DCWetZgrRPkhX42V3WNHImtxJH0nXtNqaltdqa/qqVtMFQufK9PW5crSTHmoC9C86wgz6Si/5Yo2ks4NDCXzvcMJfraYL5Mhcmb4yV+4dX6ynAABOtSQuVsb6PtbGJrlG0bI3Khp5GACwK8Ce2WQGPWzp5ElmlDoZW9ESI+nsjVvTwWtVLdPDMwXy5FzZu1Yf8LdNnknw4PtmfIgZ9PuL89U/tbFNUkCUVAcPVJ6CCB/iQ4MgFz76YwNx3L9pdC9EeGFxvvLLMGrSjKFEUv3mZOWp4UR7tFKui+PEbaN7hxJ44d13Kr989x33WoXCQCDC9rBkh8Mh6xbnKyeYUfp9G5slRM0U71U0cgoAsLnNK4IwNhD/fP+m0S/Z429mlN5p4709sXuieO/WdGe0Uq6Lfz5xW02rubI7rcKyzCtTHGVLG9ohBUTJ/vj40ss8c59MWsuguEnRyFk1U9zXwTY4MpRI9j8ytfTycKLzWm1Nk7O7J9xpFQoDYQY9z/MhNYWvBHUcnhjtFwCAuzrdFk4MInywlmozGapVyaFE8vo9E+HSajiBDz4ytfTcUEJOq5AYyHI4pKg88XaIklJ5VoNC0bK38KyBogL0nSCtZujpTtbgWMlIOnvLnonwarVngp62ezfRgaFYxQK18XwWIkycjrF0ssPScy+1r1VXCThbYH1DrCcyK9rGsTXdmlbVMqVz5atazRRqWo2kr2o1lMA3Dyda0+rYfnzHXDnkmRXB1R+gqBfpyH5Ir+WbDRI+rPKk1XSBHJor05ecfrCNGElnN/D9FE9aHduPvzhXDnFu3jrx8aX/AwAYdDrG0slN7Ux1Yw9Z+JzDzVDBNoyHLT1X8uH+UNHIA7x3lZ7k8ozl32r1/m6whyx8zuFKq+kCeXim0LpWQ4kkHEmTB4YT7rSqlumh5/c31ipUBqJmit+DCH9HcJheGeu7rU1Nso32ZReTzAVm0DE3FV1lgSi5Xs3QH7pM67+rnSUQHplyp1W1TMee3++/VkOJ5Po9E+60qpbpruf3v1+rUEzS6zCD/lgiV5KmZopfaEd71EzxXhcP/IKlk81BGAeoLWRcrqXMXM5QKOVCARE+DFHSsUf2i90T7rSaLpDNQRiHzVy5dPn72/q+Wi3LazWcwIeHEu/XKlQ9CJB/Y18y8/iTQbpbQJRU1Qx9S7KrbuvEWM0Ut/CilDJtO1UZ6/tikO0ZSiTVPRPyWokmxn6ye6K4ZTghr9X3t12rVSh20ldxASK8V3DMh/o3jcaDXNEaPFB5iu/6imj7qtHC7KQ9V5uCCNtDiA8KDv/XfLf97aDa881Jea3aaRw2b56uaTWckNdqrnxVq1ANscDVssIy2cB3BbWDrGjZGyXHrxc6taRq68QMul0mfaeikfGg2jGSlteq3cZRZ6aQ+1W1LKfV1vS1WoWxB7GZhQhnRJ6esYG4BhH+zcLs5Ft+3lzN0Me5M50TC5ZObl+YnfwHP+/thoXZySpE+L3YQHyb4FAVAHCOGSUZlx5X7JmQ02q6QG5/83TntHrz9GR1KIHfU66T02quXNMqdD0IqL0dLzKDyrz1YhDhF9RM8W6/7s1LfO0SHccMOmbpuV/7dV+v8HT+VHQcd8X3lZG0nFbVMh2bKXReq+f3y2nFXfGXCaWBgNp+x2O2JUscWjeSr/lxX4jwvRIxCmeDWq3ygqWTvRLDhxEe4egbQwk5rYJarfLCdEFOKx7hGF4DYUZp0dKJPbaVGbPaRnJEzRSfatVfi0cCOmLp/r+NW8HSc7/l5QQcgQjv8fO+PBLQkelCuLSaKchpNZSoaRVaAwG1B/9rZlDRitYVIMIPqhn6c0XLbvJyP/6GFYV+nvVjh9xveI/r+GaECPvmVcvfsEKt/Ngh95vpglir4URNq1AbCKiNsY8xgz7q4pSbFI2cUTPFpyFKuvXL+ZzoAEsnh1xesy3Y8zYAgC447AZFy/pVdVao1XQhnFrNFOS0Gkln1dAbCKgZyXeZQY+4OMUecu1VM/R3aqb4Q9mxt0TMCWMG7Yg3sQyWToRDB78Cz3j2ESfYXDm8Wk0X5LTqCgMBtYf/DQDACy5PgxDhhxSNvBUfX5pWM8V9AmMRLVfOhKXMciOYQV8THQMRltnQk0GoVSf2PGSZK4u1GkrgzaGKQHPCnrRXxvr+Qs0UTftH7+ESIxBh+z+7p7hc212mF5lBTbuT4sc45mJiBhUuEQLuVTqUwEm+pm7OlWnJbQqaoURS5deAAIDZmUJOWCuD58865/TjhQi7WskaSWfXc11Wxnb8uUirallOq07B82c5ajWcwBu7xkDqmPnUt9VM8QLPIuK1/etrEYrY/sFIn8SDnRzhwUIvrnLbvzRdIDtmCrk3ZO6ze6J4gLtsX1mR25omp47tx38h8Va+IHi7S+Wf4v5VzwIARBtrDeHBTmFHqFXXDLFWYuZTz1j68hi43Wk6Hf2Z7B/V1jSZahDTMmj/3f5cdIPdE8U9wwk8vtI4ONv3TNCfiM63dHJBcIiwDTyuo+jVODiB+X75xXRBrFVXGgiordr8vZnHn+J1t9uFY1rLkTT5KwevUYV/7gjvOZqxfSSdFYWXil4aQq9W3s5WNxW7IV2qUKuuNRBQG3NbvO72iOSue0vUY8ibMZxwngCLPueZNkRDIE97PG4YTuCRVq9RjyHvdrraQOrw3uTTPJjoYgebIpofOH7O46JFbhA9k5u3G+gJAwF8lcvMpyYrY30fs3RyFwBgSsa92Q08+0hTqmU61crnHKfVHzZXpqKd6ZbT/lTLdKbVa/DsI2FHqFXPGMhKLD33SmWs7w5LJx9hBn2I75r68eZd7/ThTIH82P6n2cf8c0e471LDnqZapmSuXDKdzocIi0JsL4naMFMgP+IrPK3gqFUYGEqItepJA6lj6blLZj71ZGWs7zYzjwcsnWDuaHiU/5ArLg3neqcP7SHSsf34jmqZHlzxI1+w/58HCwl7tJlC7lfTheU5lb6iB7xYLdP08/tTPxCdL7HP4Whg/HssHNuPU7wX9oqjVmFgOCHWKnQx6Z0kPr70/5z2VphBD5r51Lfb2yp3xMeX/q9gKffFyljfTtnr8Y1CZeVwda5MrT0T9A9OWtkvhef3h1urR6bEWnXdRmHAnBfsQjuVaOg43I3GcZ9DZrNzJXw1qtGKlKNWPONhaOHeyI5aVcv0XE8PsTwgyux4g6Jl/aiEFAgQYWFkJTOo6DvKItRqJB1erYYSYq3myvRMZCArsHQi9B/iEYehhGc5cYIxg0q5u4iYLoi14hGHoYRnOXGCzZXpG5GBrIAZ9HWJoKP7O51lvhGKlr1VYvfbN2/kubJYq+EEvn8oET6tRtJyWs2VSwuRgayAe8OK3oyqopEH2tQkaRSNiFK22j2k23CBpnBvWKFWI+nwabU1LdZqulDTKjKQVVg6Efp2QYQJRMnQrPOrmeI9AIC2B3tNF8RaDScwGUqER6vdE3Ja1YO9IgNZBf8RifYKFJ5IuuPYhgoRflzi0ILfqVr5j0ioFU8k3XFsQx1OyGlVr4wbGcgqmFGy37SHJQ5N8+TWHUXNLMdsCBNUWzo56Pe958olVi3LacWTW3cUHt8i1Gq6cFWryEAaYOnkSfsf0XEQ4cNqptix4qJqpvg9AMB2iUNfCCrJ3UxBTqvhBD68e6JzWu2ekNdqZZK7sKYe7SiL81UGEV6IDcQ/Lzg0FhuIfwUAMNXuUsxqprgPIvwfJQ5llk52MqP0T0G04913qmwogReU68RaKdfVtHJbirlVdk8U9w0n5LSaLpCdc+WrWkU9SBMsnTwjGWOiKBqZUTPFZBuatQwvNCQ1ZGIGHecpgQJjpiCv1dY0mdk90T6t7J5jOCGnVbVMx3lKoCtEPUgTFuerfwIAnOE1AkUvkg/GBuJpiPB7C7OTvmzENcKekA8eqByPDcTvlzzl3OUTo1/l3yUw3n2nphWvESjUSrkunh5K4PfePB2cVvaE/JuTlePKdfJavfrE6Ff5d7lCZCAO2MMmyezpNuvs43hurTPMKP2jn21RM8V7FI38dwDAzZKnLJh5/Fm/29EMe9gkmT3dZp19HM+tdWau7G8bd08U79madqfVsf34s43aEXnzShAfX3rOTb07vsNcsHTyWKvDG0XL3so3AeXTrwCwyAx6l5lPvdrKvb3wyJQ3raYL5LHVwxu3jKSzt/JNQFdaVcv0ruf3N9YqMhAJIErG1Aw97VJ4wB++bumkwAz6Gt+pF6Jo2Y0Q4bu5b5Xr5AnMoA/xsghtZyiRjO2Z8K7VdIEU5sr0Nb5TL2Qknd04lMB3c98q11pVy/QhXhahIZGBSMLLQf/UfiYtXOYcL/Z5YVVGjX6I8CAPdtrsodb3FTppHHV42iBftOKpea7RaiiBB3mwU0taiYwDRAbiDm4kJ1rMFxUU9rDq4U4bRx1uJKHVqlqmD4uMA0STdHcszlf/yAx6PDYQ/3BsIP6ZTrdnBQvMoDvMfOq5TjekzrvvVP84V6bH/+V18Q8r14VLq2qZ7nh+v5xWUQ/iETVTvAcifFiyvHCQnDPzeEeQVWxbZfdE8Z7hRDi0OrYf71hZxVZEZCAtAFFyUM3QpyVdGPyG1TYByWPMECeD6DRDieTgnonOaVXbBCSPySTOWEk0xGqBxfnqe5ae+wnfULyhlQmjS16wdLLz8on7Xg56E9Av3n2n+t5MoabVcKK9Wk0XyM5Xn7jv5dWbgDJEPYiPKFr2Tl5NtuXUnQ1gfG/lYBiq67bKSDp7J68mG5hW0wVysNXqupGBBADfx9jDawKKkk07YT/oGUsnLzCDvuR3PEcY4PsYe3hNwJa1mi6QF+bK9KV6PEerRAYSMLwm4BaI8Ga+z7GBDy9WT1gv8eCjCjPoOWbQM8ygb4S5opXfjKRrWg0l8Ga+zyHUqlqm5+bK9Mxcmb4RREWr/x8AAP//mC6b1mgHT/IAAAAASUVORK5CYII=;" parent="1" vertex="1">
                    <mxGeometry x="669" y="1065" width="50" height="50" as="geometry"/>
                </mxCell>
                <mxCell id="4hbtPa9VFHNtGfl8PcOY-213" value="" style="endArrow=none;html=1;fontSize=12;fontColor=#000000;fillColor=#ffe6cc;strokeColor=#d79b00;" parent="1" edge="1">
                    <mxGeometry width="50" height="50" relative="1" as="geometry">
                        <mxPoint x="640" y="1090" as="sourcePoint"/>
                        <mxPoint x="668" y="1090" as="targetPoint"/>
                    </mxGeometry>
                </mxCell>
                <mxCell id="4hbtPa9VFHNtGfl8PcOY-214" value="" style="shape=image;verticalLabelPosition=bottom;labelBackgroundColor=#ffffff;verticalAlign=top;aspect=fixed;imageAspect=0;image=data:image/png,iVBORw0KGgoAAAANSUhEUgAAAMgAAADICAYAAACtWK6eAAAnO0lEQVR4nOyde2wb173nj1yie/4QuqPCuBnsFST21N24aMqk67QxYHl52ExSp3WbtLERX5tFlNuUcXtTOMXm2srednmIJltVm6DOxt04vO7GQug0XicbZ6+zVeoJeLjSRR3UQl3GbVysMyW1vthJ63s1CYSLg65QLUY8tGWFnHNmOEMOqfkAgRFxHoff4W/O6/eIgQ4DUbIfInwjAOAmRSMbAQBx/l8//3c1lwEAFgDgEgDgoqWTiwCA8wCANyw9d7kDXyGih+nrxE0VLbsFIrwNIqwBAG4GAPhlqBUAALV0MsUM+iozSgs+XTdijdI2A1G07CaIcBoivAMAMNiGWzIAwJSlkwIz6CvMKC224Z4RPUagBgJRMgYRvkfRyEO8p+gUJjPoYUsnzzCjZHawHRFdRiAGYhuGopE9EOHvAAA2BHEPjzBuKD+IDCVCBt8NRNGyn1M0chAAsNHva/uIxQz6uKWTJ5hRYp1uTER48c1AIEqqaoY+BQDY4dc128AFSyd7LT1X6nRDIsLJB/y4iJop3q1o5GcAgH/jx/XayHqI8ChEeP3ifKW4OF+NJvIR19BSDwJREioa+SFEeK9P7bHstzp/s1f4nsfKpdoYAGBQ0YjK90hu8HFF7JyZxzuYUXrbp+tF9ACeDYQPqf6uxdUp+8d/ytLJFN/ou+D2AoqWXQ8A2AIR1iDC21pcFLDnJrvMfOq1Fq4R0UN4MhCIkterGap7fHvbw5iTfH/iNb8nyYqWvZHvt4zaQygv7WMGfdDMp57xs10R3YlrA1EzRfttfdLDj295iZUZ9AlLz11ye1+38OHfHojwmJdehRn0ITOfejKY1kV0C64MhBvHFPeTkmWR7z081om9B74ncy9E+FH7K7g5NzKSCGkD4cOqGZc9xxlLJ/dbeu7X3prnHxAlFUUj34MIP+jmvMhI1jZSy7x8Qj7j4g1s9xr//vKJ0a8vzE6+01oT/WFxvsoWZid/CgCg3EnyQzLnxQbi2yDC5xdmJ98KvpURYUNoIPZYXs3Q0y52xk1LJ7dfPnHf8cX56p9ab6K/MKNUZQZ9rn/TaEJ2bhIbiH8eAPA/mVEKhbFHtA+hgazfefSp2ED8S5LXO2fm8daF2cnftt604Ficr/4zM+jx2ED8w7GB+GckTvkgRHgbM+ik3RO1oYkRIcFxDqJmindDhF+UvNaMmcd3dFsMhpop/juI8OOSh79YGevbGXCTIkLEumYfQJQchAgfkbxOVxqHjZlPPWFPxCUP36FminsCblJEiGg6xBo8UPmxpG+VPay6tRuNo87C7OQbEGEYG4iPiI6NDcT/LTPos/YwrT2ti+gkDYdY3GV9SuJ808zjT7nd34AoqSoa+RpEeDuf/Cv2tfiy8Iv2/KATEYDx8aWfAAB2SRx6pDLW9/U2NCmiw7yvB4EoGVu/8+j/kNjvWLR0crvbCbmaKe5TNHIyNhDfxl1VIP+o3zYWiPBX+jeN7gYA/IYZpd+5+jYtwgz6Wv+m0S8BAP5McKjds56MVrV6n/fNQRSN7JFZ0mUG/Y6l595wczM1U/whRPigxE78BkUjenx86VmIkl78qTxhDxMtnezi8eyOKBqRndhHdDHX9CDcLeO/AQA+LDjvzOUTo193s8/BV4v+g8v23dS/afQvIcK/X5id/JXLcz3BjNIfIMIsNhC/XXAoAgBMMaP0D+1oV0RnuKYHgQjfI7F5Zg+t7nczR7DnHNwXygvrIcJH4+NLRUXLtiW+3dLJkzzXliOKRsba0Z6IznFND6Jm6H8FAPwrpxOYQf/L5RP3Tbq5yfqdRw/EBuKf9dpIThwinIEIg8X5ys+D3KXn1/4Nd5l3wjbY55hRsoJqS0RnudKDKFp2k0TwE7N08pjbm/DVKj+Adk+kZuibipa9xadrNoTHqZ8SHBaDCD8QZDsiOssVA4EIp0UH1+I5PLms3+DhHCc2Kho5o2aKT0OUVHy+9hUsnRDRMTK6RXQvKw1ElI1kkRn0CY/3EaUWPcsjDV0BEd6rZuhbaqZ4t8d2OWLpuVkAwIzgsEFFy24J4v4RnWfZQPgDFoXPngwqEtDSySFLJ/bw7oyH01WI8Ivx8aW/gyjZKNl1y20THSPxconoUpYNhCc7cMTSSSHIhlh67ldmHm/lflFe3Fa223MTNVPcB1HSt6z1zKCviNrj4xwrImTUDUQTHLfADBp4pg9mlBbNfOpJM48/bvdYHi7RDxE+qGboz/migx9tYhJt2aBoWd97r4jOsw6iZL/E6tWpdqboZEbpUmWs78vMoDt4HRC33Mwn8f+Jf7+WsHQiY6zRPKQHWceL1zgOSXjeqrZj5lMvmXn8SWbQQx4m8TGI8MN82PWFVtrBDPq66BiIcCez10cEhD3EukniOFc+V37CjJJl5lPfsnQyIrO73YA4RPhUfHzpBERJV1lNVrYBAHDO6RiIsIyOEV3GOl72zAnLS8ZDv7H03Bs113o6JuNM2IAdvDfxOhQ6K/g8zNnsIzyyrkkdwJV03Djq8En8D/gkXvdwifUQ4SlFy37C7YmWTkS9l+rHfCciXHSVgdRhRqlSGeu7jRk0zRNcu6Ff0chRD0vBF0UHQIQ9DeEiwss6UWwGz7IeSsx86piZxx8DABx1eerNEOE7XZ5TlTimHbUXI9qITA8S6tLK9gS6MtZ3n6UT7Ka3UzQiE1q7EpnNy3/h8poRIadpVpMVdEUyBkvPlfgk/lHJJWFhgoaVMIPK7MdEQ6weQ8ZAugZmlJiZT33X0skNEkvCLhNZR2Wk1yI9ZSCgFr3YzwOdRMuu0Q8+QojMSo5vjn9Bo2aKX4AIH5KYVwG3q3OKlpXpcbpiOBohT4xPwp0yh4R+ZQai5CCvsHuX7DnMoG73UWT2OP7R5TUjQs46XjizKbxgZiiBKBlTM8V9aoa+5cY4ePCXbFrVOjIviig2vceIcW9Zp2whoXTjVrTsLYq2HMzk2kmwVvHKdVGfj0ocE3hpuYj2EuM7xNjhGL/jyVtiRaWovR7nRzOWTv7a/X2xaNK/YOm5UO8ZRbhnnaUTkQvFIC+13HHUTPEeezjFy6h5MY4jPAu9a2dHCW9doStKRPcRk3Qh3wIAeKUN7WkIRMm4mqFPAwCEocFNuGjpZK+l54RxHU3ub+u0WXCYF1f8iJCzTibWQyIkNxD4JPxv+CTci3EwZtBHzTz+pFfjqLUD3yLhsyZyh4/oQtbxcbOjQ6JMUge/UbTsFjVD3+QpS6GHS1BLJzeZ+dR3Ww0Xlvz+pVbuERFO6jvpoj2BDYqWvbEN7bF7jfXx8aVnFY3MeAxCuswMmq6M9aUsPedLrUSIsMix0bL0nGPEYUR3smwglk6Em2btyCCoZor38uGUKCduM+xJ+MfMfOqYX23iKU5FSbM7ErMfETzLBsIM+qoojBUiPApR0stQRwhEeGN8fGkaInxUonBPI85bOhmpjPV93e9E0opG9oqOsXQiyuEb0aVwA1muLyh6C67nxXV8ByI85tb9nGNPwsfMPP6Upef+3v92LSd5EA2vGE8uF9GDXPHmlcmcaP+QPWYtDGKHecrM44+b+dQPgnJFVzRyQGKB4GQ3FzCNcOaKgfC3oChz+wZFI/d6uA/1cE4zLjGD7qiM9d3BjFJg4cC86I/M8MqtT1dEF3GlgM7ifPVPEOH+2EDcye0ExAbin2EG/fHifNXN0uk/+zDJX2QG/c+XT4zeY+m5X7Z4LSGDBypPSfh5nTfzKdduKxHdwzUBU5ZOnpHIOaUqGvmem5tYeu41j2l66py1dLLZzKe+3Y5qToqWTcqspDGDRoU8e5xrSrAtzlcXIMLrYwNxR7cKuxexh03MKMlk+liGGfR0/6bRtGRcRR3LnoRfPjH6wMLsZFuKZUKU7F+/8+jPeO12Jy7a7QqyFFxE5+lb/Qd77M33IkQ/kEu1JAklaQ9W7lP1smS60xfNPLZ7jLa6kMfHl56V7D1GzXzKVa3GiO7jA6v/wHuRmETRzQ/1bxpNMIMel32LLs5X7R7hx7GB+D/FBuI32NdocNiMpZOMmU99f3G++p70N/EBNVP8WmwgLlOq+uylH3zkr9rQpIgO874eBNTe9FDN0F/KuHowgx4y86lvebm5omXtnuR6vpRq90Szlp7zUgOxZdRMMQkR1mXc6O35kKXnOpbQO6J9NDQQwCeqikaklmeZQR828ymv9Qs7jqJlN/HvKpwftfJCiOg+3jfEqmNPwPmE/TOii8QG4rdDhK2F2cmue6ty4zgFAPiwxOH2xHzn4nz1j21oWkQIaGogYHnOUCn2bxrdLpNkLTYQ3wYRhguzk57jLtqNPazq3zT6M0njWLR0sm1hdlJ65S6i+2k6xKoDUfKjaoaelVjVqvOCmcdfD7v7hT0hhwgflg3dZQZ90MynfhR8yyLChGMPAmorT/MQ4XOxgfguyUyMN/RvGv0SAOB/MaP0B3+a6R8QJfsHD1Se4atVUpklmUGPmPnUd4NvXUTYEBqIzcLs5NsQ4d/HBuKy5Y7/DCL8lxBhtjhf+UVYNtMULZvkm4CO7jSrmLp8YnRPWL5DRHuRMhBQM5JZeyJuzzUkT4nZk/f+TaNfAQD8xs2uu99AlFQHD1SegggfdDFUtJkx8/jOdlb4jQgXwjnIamqF+pd/aG45aenkUUvPzXo41xO2YSgaOcC9ct0Ge83wFEGhnktFBItrAwGtGQngO+WHmEFfCerNzLMu7uXBTl6iIKfMPN4ZGUeEJwMBNSO5m4fIei1cucB7lZPMoK+34qULUTIGEb4FIryNJ1gQxZA3xZ6QWzr5RlQPJAK0YiCg9qa+UdHISZ/y957jbu3neZZCe86ywAx6qf5j5SUI+nki6Y9ChDfyjIebWzDUOovMoA9FS7kRK2nJQADPlatm6N8CAHb406SOcNHSya4g5kfcqLdAhDfz/L4beGKK1ckpLvGIzovMoOeZQc8wg76xloZ5YdSqZQOpo2aKe/i8JBR5fGVhBj1k6eQRP8VVtKzds9l63NVi8m/G52wvMIO+1I5gsXYTdq18MxDAk76pGfp9AMD9fl43IOzh3IN+euUqWvZORSMPe8zQIsL+ARQsnRz0ULohdHSLVr4aSB0+N3kcANCRnL4CLtby9foX7KRo2c8pGhmXDATzA/vh5yw913UZ5btNq0AMpA5fbh0DAGwPQa1De6z6uKWTY36tUPHSb0/z79dulhNzWzoJLO2Rn3SrVoEaSB1Fy8Yhwg/wzCbtrHnI+FLykVayuzdCzRTv4c6Obnbmg+Ccmcc7mFF6u8PtaEo3a9UWA1mJomW3QIR3QIS3t7Jf4YA9OZuydHKKb0b6urIBUTKmaOSHvIhPWFhgBt1l5lOvdrohK+kFrdpuICuxexYAwBY+WfMyJl3geybneX2OUpBZ1iFK9qsZeqKFQj5BssgjO5/sdENAD2nVUQOpI5NJhBmUMIOe56WW7V7iUjtrAvIH/tMWV11s471g6eTCqpos/RDhQb72v1kmQK0ZfLOzo0bSS1p1jYHwEmrPtK9VV6lVuqKnXbrJ29gTQt3SSYEZ9DXZFEl8b+BuPmdzXSOlk0bSa1p1jYHYk+3KWN+X29Ska4iPLz0HAHCTOnWRLy8+1upSrKJlb1U08h2XPzh7CHFXJ+YkvaaVVERdSNgGUbLtqyBqprjP5QOnlk5uqIz13efHPoWl516vjPWl7Imliyz5MYjwCxAlZWq7+0YvatVNBgI9Zpb3jKJlb4QIy+bfXXZ29LP020rMfOq4mcefAgDIFuux5wEveixX4Zpe1aqbDKRenySQKlfvv9fyEuVRyQ3OBWZQLehxvz0ur4z1fZEZ9FHJU25SNPI3QbYJ9LhWXWUgPLN8W1J+Khp5QHLp2bJ0MmLmU22rclur3EsfkjnWfqkoWjaI/aYr9LJW3WYg9pf4DkTJQHfj7bkOLz8tgjGDbrf03K+CbE8j7Dew5NsRui1X4YZe16rrDMR+YakZ+myQY2tFI/tk3CKYQfea+ZTvtRFl4amIZMbZuxQt+4kg2tDrWnWjgdhoikayQVzYnuPIlF4DABTCUP7AzOP7ZFZsFI1IDTPcsBa06lYDWR5q8WVFv697p8TurGXm8bf9vrcX7MkoM+jDEoem/V4mXwtada2BgNoDOui3kSgaEQZ71dxe5AsHuaW2G13cFx9f+ml8fOmt+PjSCUXLbml2vJlPHZcolGq/7e/2s51rQauuNhBw1Uj+1o85CUTJ9RK7sCav5RgI3I/pNA9f3sbdJ3YoGqFqpvhAs/MsnQgnoYpGRDXf3bRzTWjV9QYCakZyv5qhv1C07I0tXudW0Vo+M+iRoPJ5rXDya/TDi9k/BEXLNlzB4/EuFwS3GLHv4U9b14ZWPWEgnJsUjZxVM8WnIUp68vBUNCL04WEGDWSyKekBCwEATYdJzKAF0W0gwrd4b+VV1opWvWQggL859qoZ+rv4+NJzvJyzGxyr+9biTvyPA3fpHt50os0M+pL4Xlj0HWVZE1p1Ok48KOy3R1rRiP3fZe5GfYZ3q29zD9JGOKadYQZtpdZ744a6j51oOjSw9NwFRSOm08oST7TnB2tCq24xEMoMeg4i7GUtf31t86f1CSozlgsJOaJo2Rv4Pc+LAro8PPBLzKCvCI6xXwR3OXy+Iz6+tCR5P8/0iFbxbjEQYOZT31YzRQsiTDrYjKaepzyDy5GVb1ZFI02rbXl44AuWTnaIJr3MoBcgchurFAi9oJXaVXMQM5/KMYNu5yG3naDhW07RshsUjegNhh277Ae7euXIywNnBt0mk+SOGVQ2DiJoekGrwa4yEFAzklfNPP6kC19/37D0XKXR37mbdLPl05GVD97rA3fhxxSKXL69olXXGQiouQxc4r7+biLHgkS0orP84BUtqwb8wLuBrtKqKw2kDo8c+xj39w/cUBQt2ywxt0y2vhFFI7/r9ANvF72iVVcbCKj1JszMp5408/gj9sQMAHBS8iF4odlDn5E8XzYaspUH7ketFj/oBa2srjeQOswoLVp67qXKWN+XzTwesPTlZd3DPL+SXwbTMLDfzOPHeL0KP2jpbahoxHXqm4DoBa3MrlnmdQMzSgvMKB239NxxcLVE2wa+KfTnzXyIeFx1U2qbbLn3pYex50RmHmM1Q2kricx8GiqIHvpZSyeHWrj+MmtEq4vdkheLVsb6Um1ox+8E3a5eGeu7rdmHECWvb+HBt/zAeX2WPzgdwwz6uJlP/bXXe9RZK1r1zBDLJ0R5fR29YZlR+q39dvQwhPBlkgkR/pzoGGbQM63cYwVrQqvIQFZg6aTloCMPD963FRhFIzJJ23xZ6VkrWkUGci2viQ5QNCJM5e/iwfv4wJfT1Ygqep239JxfE+Q1oVVkICuw9NwFXk7BiZtl3OglHrxp5vHNfq3d8x1qUQDTST/uBdaQVpGBrIIZ1HF1BtQElkqxueLBr/ZsvWD/3f7cc0OvaU/2epmcuMygx/y434rr9bxW0SrWKhQtO8h3cUVvmAfNfOpHLq57M98beNvSc0JXcDfEx5eKEvHhM5Wxvq1+3nctaBUZSOP2yKTwX7B0srnTJZnVTHEfT1rgiKWTuyw9J4qPcE2vaxUNsRpg6cvDAtHue7+ikRf9SoLgBTVTTEpmVD8XhHGANaBVZCAN4PljRUH9NhsbxTC0A0XLfgIifEomo7qlL5fiDoRe1yoykCaYefyIZGDWSLsfvJopblE0MuMQV7GSU5aeEy7JtkIvaxUZSBOYUTJl0+bzB/+LoBJEr0TNFO+FCOuSNcctM4+/EXSbelmryEAc4AmXZfcONioaOaNmioHUL4Eoud6eEEOEj8q6gjOD7mVGqS0BZb2qVWQgAsw8/qpEFr46/RDhQ/HxpV94yMnVEIiSUM0U96kZ+r/d1P9jBj3E89C2jV7UKlrmlaAFz9Nl13Jm0JcaZetwQtGyGyDC9hDhfg/3nTLz+IvMKAUVONaUXtMqMhBJeKoaXXKytxoGAJhhBl3O78WT112u54LiOWTtB3s9RPhmiLAmSszmwIyZx3e4/ZH5SS9pFRmIC/iDP9lioE+QdNw46vSKVtEcxAWWnnuD+wvJjrPbScHM41QYjAP0kFaRgbiEO9V92sWKTdDUa45/tRNzDid6QavIQDxgv3kqY31fZgYd7WCWR1BziyA3B11zvBW6XavIQFrAzKcmzTz+OADgaICphhph1Txk8ac7UVbZC92qVWQgLcKMklkZ67vPfjtxn6QgH/5lZlBi5vFHzHzqR2EbUonoRq2iVSyfUbTsIF+Tt7/PBh8uaT9YaunkKN8jCKSkWSfoBq0iAwkQRctuBAB8jpcru0ky66H9kM8DAM5YOqHMoK8HWSU2LIRVq8hA2ghEyX6IcJyn5bxuhZ+QPXl9FwBQaZYVfa0RFq16MrNiWOEZH893uh3dQFi0iibpEREORAYSEeFAZCAREQ5EBhIR4UBkIBERDkQGEhHhQLTM20bCsrbfDQwlkv1DCWetZgrRPkhX42V3WNHImtxJH0nXtNqaltdqa/qqVtMFQufK9PW5crSTHmoC9C86wgz6Si/5Yo2ks4NDCXzvcMJfraYL5Mhcmb4yV+4dX6ynAABOtSQuVsb6PtbGJrlG0bI3Khp5GACwK8Ce2WQGPWzp5ElmlDoZW9ESI+nsjVvTwWtVLdPDMwXy5FzZu1Yf8LdNnknw4PtmfIgZ9PuL89U/tbFNUkCUVAcPVJ6CCB/iQ4MgFz76YwNx3L9pdC9EeGFxvvLLMGrSjKFEUv3mZOWp4UR7tFKui+PEbaN7hxJ44d13Kr989x33WoXCQCDC9rBkh8Mh6xbnKyeYUfp9G5slRM0U71U0cgoAsLnNK4IwNhD/fP+m0S/Z429mlN5p4709sXuieO/WdGe0Uq6Lfz5xW02rubI7rcKyzCtTHGVLG9ohBUTJ/vj40ss8c59MWsuguEnRyFk1U9zXwTY4MpRI9j8ytfTycKLzWm1Nk7O7J9xpFQoDYQY9z/MhNYWvBHUcnhjtFwCAuzrdFk4MInywlmozGapVyaFE8vo9E+HSajiBDz4ytfTcUEJOq5AYyHI4pKg88XaIklJ5VoNC0bK38KyBogL0nSCtZujpTtbgWMlIOnvLnonwarVngp62ezfRgaFYxQK18XwWIkycjrF0ssPScy+1r1VXCThbYH1DrCcyK9rGsTXdmlbVMqVz5atazRRqWo2kr2o1lMA3Dyda0+rYfnzHXDnkmRXB1R+gqBfpyH5Ir+WbDRI+rPKk1XSBHJor05ecfrCNGElnN/D9FE9aHduPvzhXDnFu3jrx8aX/AwAYdDrG0slN7Ux1Yw9Z+JzDzVDBNoyHLT1X8uH+UNHIA7x3lZ7k8ozl32r1/m6whyx8zuFKq+kCeXim0LpWQ4kkHEmTB4YT7rSqlumh5/c31ipUBqJmit+DCH9HcJheGeu7rU1Nso32ZReTzAVm0DE3FV1lgSi5Xs3QH7pM67+rnSUQHplyp1W1TMee3++/VkOJ5Po9E+60qpbpruf3v1+rUEzS6zCD/lgiV5KmZopfaEd71EzxXhcP/IKlk81BGAeoLWRcrqXMXM5QKOVCARE+DFHSsUf2i90T7rSaLpDNQRiHzVy5dPn72/q+Wi3LazWcwIeHEu/XKlQ9CJB/Y18y8/iTQbpbQJRU1Qx9S7KrbuvEWM0Ut/CilDJtO1UZ6/tikO0ZSiTVPRPyWokmxn6ye6K4ZTghr9X3t12rVSh20ldxASK8V3DMh/o3jcaDXNEaPFB5iu/6imj7qtHC7KQ9V5uCCNtDiA8KDv/XfLf97aDa881Jea3aaRw2b56uaTWckNdqrnxVq1ANscDVssIy2cB3BbWDrGjZGyXHrxc6taRq68QMul0mfaeikfGg2jGSlteq3cZRZ6aQ+1W1LKfV1vS1WoWxB7GZhQhnRJ6esYG4BhH+zcLs5Ft+3lzN0Me5M50TC5ZObl+YnfwHP+/thoXZySpE+L3YQHyb4FAVAHCOGSUZlx5X7JmQ02q6QG5/83TntHrz9GR1KIHfU66T02quXNMqdD0IqL0dLzKDyrz1YhDhF9RM8W6/7s1LfO0SHccMOmbpuV/7dV+v8HT+VHQcd8X3lZG0nFbVMh2bKXReq+f3y2nFXfGXCaWBgNp+x2O2JUscWjeSr/lxX4jwvRIxCmeDWq3ygqWTvRLDhxEe4egbQwk5rYJarfLCdEFOKx7hGF4DYUZp0dKJPbaVGbPaRnJEzRSfatVfi0cCOmLp/r+NW8HSc7/l5QQcgQjv8fO+PBLQkelCuLSaKchpNZSoaRVaAwG1B/9rZlDRitYVIMIPqhn6c0XLbvJyP/6GFYV+nvVjh9xveI/r+GaECPvmVcvfsEKt/Ngh95vpglir4URNq1AbCKiNsY8xgz7q4pSbFI2cUTPFpyFKuvXL+ZzoAEsnh1xesy3Y8zYAgC447AZFy/pVdVao1XQhnFrNFOS0Gkln1dAbCKgZyXeZQY+4OMUecu1VM/R3aqb4Q9mxt0TMCWMG7Yg3sQyWToRDB78Cz3j2ESfYXDm8Wk0X5LTqCgMBtYf/DQDACy5PgxDhhxSNvBUfX5pWM8V9AmMRLVfOhKXMciOYQV8THQMRltnQk0GoVSf2PGSZK4u1GkrgzaGKQHPCnrRXxvr+Qs0UTftH7+ESIxBh+z+7p7hc212mF5lBTbuT4sc45mJiBhUuEQLuVTqUwEm+pm7OlWnJbQqaoURS5deAAIDZmUJOWCuD58865/TjhQi7WskaSWfXc11Wxnb8uUirallOq07B82c5ajWcwBu7xkDqmPnUt9VM8QLPIuK1/etrEYrY/sFIn8SDnRzhwUIvrnLbvzRdIDtmCrk3ZO6ze6J4gLtsX1mR25omp47tx38h8Va+IHi7S+Wf4v5VzwIARBtrDeHBTmFHqFXXDLFWYuZTz1j68hi43Wk6Hf2Z7B/V1jSZahDTMmj/3f5cdIPdE8U9wwk8vtI4ONv3TNCfiM63dHJBcIiwDTyuo+jVODiB+X75xXRBrFVXGgiordr8vZnHn+J1t9uFY1rLkTT5KwevUYV/7gjvOZqxfSSdFYWXil4aQq9W3s5WNxW7IV2qUKuuNRBQG3NbvO72iOSue0vUY8ibMZxwngCLPueZNkRDIE97PG4YTuCRVq9RjyHvdrraQOrw3uTTPJjoYgebIpofOH7O46JFbhA9k5u3G+gJAwF8lcvMpyYrY30fs3RyFwBgSsa92Q08+0hTqmU61crnHKfVHzZXpqKd6ZbT/lTLdKbVa/DsI2FHqFXPGMhKLD33SmWs7w5LJx9hBn2I75r68eZd7/ThTIH82P6n2cf8c0e471LDnqZapmSuXDKdzocIi0JsL4naMFMgP+IrPK3gqFUYGEqItepJA6lj6blLZj71ZGWs7zYzjwcsnWDuaHiU/5ArLg3neqcP7SHSsf34jmqZHlzxI1+w/58HCwl7tJlC7lfTheU5lb6iB7xYLdP08/tTPxCdL7HP4Whg/HssHNuPU7wX9oqjVmFgOCHWKnQx6Z0kPr70/5z2VphBD5r51Lfb2yp3xMeX/q9gKffFyljfTtnr8Y1CZeVwda5MrT0T9A9OWtkvhef3h1urR6bEWnXdRmHAnBfsQjuVaOg43I3GcZ9DZrNzJXw1qtGKlKNWPONhaOHeyI5aVcv0XE8PsTwgyux4g6Jl/aiEFAgQYWFkJTOo6DvKItRqJB1erYYSYq3myvRMZCArsHQi9B/iEYehhGc5cYIxg0q5u4iYLoi14hGHoYRnOXGCzZXpG5GBrIAZ9HWJoKP7O51lvhGKlr1VYvfbN2/kubJYq+EEvn8oET6tRtJyWs2VSwuRgayAe8OK3oyqopEH2tQkaRSNiFK22j2k23CBpnBvWKFWI+nwabU1LdZqulDTKjKQVVg6Efp2QYQJRMnQrPOrmeI9AIC2B3tNF8RaDScwGUqER6vdE3Ja1YO9IgNZBf8RifYKFJ5IuuPYhgoRflzi0ILfqVr5j0ioFU8k3XFsQx1OyGlVr4wbGcgqmFGy37SHJQ5N8+TWHUXNLMdsCBNUWzo56Pe958olVi3LacWTW3cUHt8i1Gq6cFWryEAaYOnkSfsf0XEQ4cNqptix4qJqpvg9AMB2iUNfCCrJ3UxBTqvhBD68e6JzWu2ekNdqZZK7sKYe7SiL81UGEV6IDcQ/Lzg0FhuIfwUAMNXuUsxqprgPIvwfJQ5llk52MqP0T0G04913qmwogReU68RaKdfVtHJbirlVdk8U9w0n5LSaLpCdc+WrWkU9SBMsnTwjGWOiKBqZUTPFZBuatQwvNCQ1ZGIGHecpgQJjpiCv1dY0mdk90T6t7J5jOCGnVbVMx3lKoCtEPUgTFuerfwIAnOE1AkUvkg/GBuJpiPB7C7OTvmzENcKekA8eqByPDcTvlzzl3OUTo1/l3yUw3n2nphWvESjUSrkunh5K4PfePB2cVvaE/JuTlePKdfJavfrE6Ff5d7lCZCAO2MMmyezpNuvs43hurTPMKP2jn21RM8V7FI38dwDAzZKnLJh5/Fm/29EMe9gkmT3dZp19HM+tdWau7G8bd08U79madqfVsf34s43aEXnzShAfX3rOTb07vsNcsHTyWKvDG0XL3so3AeXTrwCwyAx6l5lPvdrKvb3wyJQ3raYL5LHVwxu3jKSzt/JNQFdaVcv0ruf3N9YqMhAJIErG1Aw97VJ4wB++bumkwAz6Gt+pF6Jo2Y0Q4bu5b5Xr5AnMoA/xsghtZyiRjO2Z8K7VdIEU5sr0Nb5TL2Qknd04lMB3c98q11pVy/QhXhahIZGBSMLLQf/UfiYtXOYcL/Z5YVVGjX6I8CAPdtrsodb3FTppHHV42iBftOKpea7RaiiBB3mwU0taiYwDRAbiDm4kJ1rMFxUU9rDq4U4bRx1uJKHVqlqmD4uMA0STdHcszlf/yAx6PDYQ/3BsIP6ZTrdnBQvMoDvMfOq5TjekzrvvVP84V6bH/+V18Q8r14VLq2qZ7nh+v5xWUQ/iETVTvAcifFiyvHCQnDPzeEeQVWxbZfdE8Z7hRDi0OrYf71hZxVZEZCAtAFFyUM3QpyVdGPyG1TYByWPMECeD6DRDieTgnonOaVXbBCSPySTOWEk0xGqBxfnqe5ae+wnfULyhlQmjS16wdLLz8on7Xg56E9Av3n2n+t5MoabVcKK9Wk0XyM5Xn7jv5dWbgDJEPYiPKFr2Tl5NtuXUnQ1gfG/lYBiq67bKSDp7J68mG5hW0wVysNXqupGBBADfx9jDawKKkk07YT/oGUsnLzCDvuR3PEcY4PsYe3hNwJa1mi6QF+bK9KV6PEerRAYSMLwm4BaI8Ga+z7GBDy9WT1gv8eCjCjPoOWbQM8ygb4S5opXfjKRrWg0l8Ga+zyHUqlqm5+bK9Mxcmb4RREWr/x8AAP//mC6b1mgHT/IAAAAASUVORK5CYII=;" parent="1" vertex="1">
                    <mxGeometry x="576" y="990" width="50" height="50" as="geometry"/>
                </mxCell>
                <mxCell id="4hbtPa9VFHNtGfl8PcOY-215" value="" style="endArrow=none;html=1;fontSize=12;fontColor=#000000;entryX=0.5;entryY=1;entryDx=0;entryDy=0;fillColor=#d5e8d4;strokeColor=#82b366;" parent="1" source="4hbtPa9VFHNtGfl8PcOY-216" target="4hbtPa9VFHNtGfl8PcOY-214" edge="1">
                    <mxGeometry width="50" height="50" relative="1" as="geometry">
                        <mxPoint x="510" y="1080" as="sourcePoint"/>
                        <mxPoint x="560" y="1030" as="targetPoint"/>
                    </mxGeometry>
                </mxCell>
                <mxCell id="4hbtPa9VFHNtGfl8PcOY-218" value="Github Actions&lt;br&gt;(next build &amp;amp;&amp;amp; &lt;br&gt;next export(SSG))" style="text;html=1;fillColor=#ffe6cc;align=center;verticalAlign=middle;whiteSpace=wrap;rounded=0;fontSize=12;labelBorderColor=none;strokeColor=#d79b00;fontColor=#000000;" parent="1" vertex="1">
                    <mxGeometry x="700" y="980" width="111" height="48" as="geometry"/>
                </mxCell>
                <mxCell id="4hbtPa9VFHNtGfl8PcOY-219" value="S3（article-meta-data.toml）" style="text;html=1;strokeColor=none;fillColor=none;align=center;verticalAlign=middle;whiteSpace=wrap;rounded=0;fontSize=12;fontColor=#000000;" parent="1" vertex="1">
                    <mxGeometry x="511.5" y="958" width="176" height="20" as="geometry"/>
                </mxCell>
                <mxCell id="4hbtPa9VFHNtGfl8PcOY-220" value="Lambda" style="text;html=1;strokeColor=none;fillColor=none;align=center;verticalAlign=middle;whiteSpace=wrap;rounded=0;fontSize=12;fontColor=#000000;" parent="1" vertex="1">
                    <mxGeometry x="389.5" y="958" width="101" height="20" as="geometry"/>
                </mxCell>
                <mxCell id="4hbtPa9VFHNtGfl8PcOY-221" value="DynamoDB" style="text;html=1;strokeColor=none;fillColor=none;align=center;verticalAlign=middle;whiteSpace=wrap;rounded=0;fontSize=12;fontColor=#000000;" parent="1" vertex="1">
                    <mxGeometry x="208.5" y="958" width="101" height="20" as="geometry"/>
                </mxCell>
                <mxCell id="4hbtPa9VFHNtGfl8PcOY-216" value="Github Actions(S3 sync)" style="text;html=1;fillColor=#d5e8d4;align=center;verticalAlign=middle;whiteSpace=wrap;rounded=0;fontSize=12;labelBorderColor=none;strokeColor=#82b366;fontColor=#000000;" parent="1" vertex="1">
                    <mxGeometry x="525" y="1045" width="154" height="20" as="geometry"/>
                </mxCell>
                <mxCell id="4hbtPa9VFHNtGfl8PcOY-222" value="" style="endArrow=none;html=1;fontSize=12;fontColor=#000000;entryX=0.5;entryY=1;entryDx=0;entryDy=0;fillColor=#d5e8d4;strokeColor=#82b366;" parent="1" source="4hbtPa9VFHNtGfl8PcOY-164" target="4hbtPa9VFHNtGfl8PcOY-216" edge="1">
                    <mxGeometry width="50" height="50" relative="1" as="geometry">
                        <mxPoint x="600.3333333333333" y="1070" as="sourcePoint"/>
                        <mxPoint x="601" y="1040" as="targetPoint"/>
                    </mxGeometry>
                </mxCell>
                <mxCell id="4hbtPa9VFHNtGfl8PcOY-223" value="Route 53" style="text;html=1;strokeColor=none;fillColor=none;align=center;verticalAlign=middle;whiteSpace=wrap;rounded=0;fontSize=12;fontColor=#000000;" parent="1" vertex="1">
                    <mxGeometry x="208.5" y="814" width="101" height="20" as="geometry"/>
                </mxCell>
                <mxCell id="4hbtPa9VFHNtGfl8PcOY-224" value="CloudFront" style="text;html=1;strokeColor=none;fillColor=none;align=center;verticalAlign=middle;whiteSpace=wrap;rounded=0;fontSize=12;fontColor=#000000;" parent="1" vertex="1">
                    <mxGeometry x="389.5" y="814" width="101" height="20" as="geometry"/>
                </mxCell>
                <mxCell id="4hbtPa9VFHNtGfl8PcOY-225" value="S3（Static Hosting）" style="text;html=1;strokeColor=none;fillColor=none;align=center;verticalAlign=middle;whiteSpace=wrap;rounded=0;fontSize=12;fontColor=#000000;" parent="1" vertex="1">
                    <mxGeometry x="534.75" y="814" width="129.5" height="20" as="geometry"/>
                </mxCell>
                <mxCell id="4hbtPa9VFHNtGfl8PcOY-226" value="Public" style="text;html=1;strokeColor=none;fillColor=none;align=center;verticalAlign=middle;whiteSpace=wrap;rounded=0;fontSize=12;fontColor=#000000;" parent="1" vertex="1">
                    <mxGeometry x="200" y="710" width="40" height="20" as="geometry"/>
                </mxCell>
                <mxCell id="4hbtPa9VFHNtGfl8PcOY-227" value="User" style="text;html=1;strokeColor=none;fillColor=none;align=center;verticalAlign=middle;whiteSpace=wrap;rounded=0;fontSize=12;fontColor=#000000;" parent="1" vertex="1">
                    <mxGeometry x="-1.5" y="814" width="101" height="20" as="geometry"/>
                </mxCell>
                <mxCell id="4hbtPa9VFHNtGfl8PcOY-228" value="Development(local)" style="text;html=1;strokeColor=none;fillColor=none;align=center;verticalAlign=middle;whiteSpace=wrap;rounded=0;fontSize=12;fontColor=#000000;" parent="1" vertex="1">
                    <mxGeometry x="208.5" y="1125" width="101" height="20" as="geometry"/>
                </mxCell>
                <mxCell id="4hbtPa9VFHNtGfl8PcOY-231" value="SSR(Scan/Query)/Preview" style="text;html=1;fillColor=none;align=center;verticalAlign=middle;whiteSpace=wrap;rounded=0;fontSize=12;fontColor=#000000;strokeColor=#000000;" parent="1" vertex="1">
                    <mxGeometry x="181" y="1020" width="156" height="20" as="geometry"/>
                </mxCell>
                <mxCell id="4hbtPa9VFHNtGfl8PcOY-233" value="" style="endArrow=none;html=1;fontSize=12;fontColor=#000000;entryX=0.5;entryY=1;entryDx=0;entryDy=0;exitX=0.5;exitY=0;exitDx=0;exitDy=0;strokeColor=#000000;" parent="1" source="4hbtPa9VFHNtGfl8PcOY-231" target="4hbtPa9VFHNtGfl8PcOY-221" edge="1">
                    <mxGeometry width="50" height="50" relative="1" as="geometry">
                        <mxPoint x="250" y="1030" as="sourcePoint"/>
                        <mxPoint x="300" y="980" as="targetPoint"/>
                    </mxGeometry>
                </mxCell>
                <mxCell id="4hbtPa9VFHNtGfl8PcOY-237" value="" style="edgeStyle=orthogonalEdgeStyle;rounded=0;orthogonalLoop=1;jettySize=auto;html=1;fontSize=12;fontColor=#000000;strokeColor=#000000;" parent="1" source="4hbtPa9VFHNtGfl8PcOY-236" target="4hbtPa9VFHNtGfl8PcOY-171" edge="1">
                    <mxGeometry relative="1" as="geometry"/>
                </mxCell>
                <mxCell id="4hbtPa9VFHNtGfl8PcOY-241" style="edgeStyle=orthogonalEdgeStyle;rounded=0;orthogonalLoop=1;jettySize=auto;html=1;fontSize=12;fontColor=#000000;strokeColor=#000000;" parent="1" source="4hbtPa9VFHNtGfl8PcOY-236" target="4hbtPa9VFHNtGfl8PcOY-170" edge="1">
                    <mxGeometry relative="1" as="geometry"/>
                </mxCell>
                <mxCell id="4hbtPa9VFHNtGfl8PcOY-236" value="Custom Domain/&lt;br&gt;Https" style="text;html=1;fillColor=none;align=center;verticalAlign=middle;whiteSpace=wrap;rounded=0;fontSize=12;fontColor=#000000;strokeColor=#000000;" parent="1" vertex="1">
                    <mxGeometry x="318" y="752.5" width="59.5" height="45" as="geometry"/>
                </mxCell>
                <mxCell id="4hbtPa9VFHNtGfl8PcOY-243" style="edgeStyle=orthogonalEdgeStyle;rounded=0;orthogonalLoop=1;jettySize=auto;html=1;fontSize=12;fontColor=#000000;strokeColor=#000000;" parent="1" source="4hbtPa9VFHNtGfl8PcOY-242" target="4hbtPa9VFHNtGfl8PcOY-171" edge="1">
                    <mxGeometry relative="1" as="geometry"/>
                </mxCell>
                <mxCell id="4hbtPa9VFHNtGfl8PcOY-244" style="edgeStyle=orthogonalEdgeStyle;rounded=0;orthogonalLoop=1;jettySize=auto;html=1;fontSize=12;fontColor=#000000;strokeColor=#000000;" parent="1" source="4hbtPa9VFHNtGfl8PcOY-242" target="4hbtPa9VFHNtGfl8PcOY-169" edge="1">
                    <mxGeometry relative="1" as="geometry"/>
                </mxCell>
                <mxCell id="4hbtPa9VFHNtGfl8PcOY-242" value="CDN" style="text;html=1;fillColor=none;align=center;verticalAlign=middle;whiteSpace=wrap;rounded=0;fontSize=12;fontColor=#000000;strokeColor=#000000;" parent="1" vertex="1">
                    <mxGeometry x="500" y="761.25" width="40" height="27.5" as="geometry"/>
                </mxCell>
                <mxCell id="4hbtPa9VFHNtGfl8PcOY-246" style="edgeStyle=orthogonalEdgeStyle;rounded=0;orthogonalLoop=1;jettySize=auto;html=1;fontSize=12;fontColor=#000000;strokeColor=#000000;" parent="1" source="4hbtPa9VFHNtGfl8PcOY-245" target="4hbtPa9VFHNtGfl8PcOY-166" edge="1">
                    <mxGeometry relative="1" as="geometry"/>
                </mxCell>
                <mxCell id="4hbtPa9VFHNtGfl8PcOY-245" value="Transform (.toml to Record)" style="text;html=1;fillColor=none;align=center;verticalAlign=middle;whiteSpace=wrap;rounded=0;fontSize=12;fontColor=#000000;strokeColor=#000000;" parent="1" vertex="1">
                    <mxGeometry x="318" y="896.5" width="59.5" height="45" as="geometry"/>
                </mxCell>
                <mxCell id="4hbtPa9VFHNtGfl8PcOY-249" value="Event Notification&lt;br&gt;on Push" style="text;html=1;fillColor=none;align=center;verticalAlign=middle;whiteSpace=wrap;rounded=0;fontSize=12;fontColor=#000000;strokeColor=#000000;" parent="1" vertex="1">
                    <mxGeometry x="462.75" y="850" width="114.5" height="30" as="geometry"/>
                </mxCell>
                <mxCell id="4hbtPa9VFHNtGfl8PcOY-251" value="" style="endArrow=none;html=1;fontSize=12;fontColor=#000000;entryX=0.5;entryY=1;entryDx=0;entryDy=0;" parent="1" target="4hbtPa9VFHNtGfl8PcOY-249" edge="1">
                    <mxGeometry width="50" height="50" relative="1" as="geometry">
                        <mxPoint x="520" y="890" as="sourcePoint"/>
                        <mxPoint x="570" y="880" as="targetPoint"/>
                    </mxGeometry>
                </mxCell>
                <mxCell id="4hbtPa9VFHNtGfl8PcOY-254" value="" style="endArrow=none;html=1;fontSize=12;fontColor=#000000;exitX=1;exitY=0.5;exitDx=0;exitDy=0;strokeColor=#000000;" parent="1" source="4hbtPa9VFHNtGfl8PcOY-245" edge="1">
                    <mxGeometry width="50" height="50" relative="1" as="geometry">
                        <mxPoint x="380" y="960" as="sourcePoint"/>
                        <mxPoint x="400" y="919" as="targetPoint"/>
                    </mxGeometry>
                </mxCell>
            </root>
        </mxGraphModel>
    </diagram>
</mxfile>